<?xml version="1.0" encoding="utf-8"?>
<!-- Generator: Adobe Illustrator 15.0.2, SVG Export Plug-In . SVG Version: 6.00 Build 0)  -->
<!DOCTYPE svg PUBLIC "-//W3C//DTD SVG 1.1//EN" "http://www.w3.org/Graphics/SVG/1.1/DTD/svg11.dtd">
<svg version="1.1" id="Layer_1" xmlns="http://www.w3.org/2000/svg" xmlns:xlink="http://www.w3.org/1999/xlink" x="0px" y="0px"
	 width="15px" height="15px" viewBox="0 0 15 15" enable-background="new 0 0 15 15" xml:space="preserve">
<rect y="7" fill="#333333" width="1" height="1"/>
<rect x="1" y="7" fill="#333333" width="1" height="1"/>
<rect x="2" y="7" fill="#333333" width="1" height="1"/>
<rect x="3" y="7" fill="#333333" width="1" height="1"/>
<rect x="2" y="7" fill="#333333" width="1" height="1"/>
<rect x="4" y="7" fill="#333333" width="1" height="1"/>
<rect x="5" y="7" fill="#333333" width="1" height="1"/>
<rect x="6" y="7" fill="#333333" width="1" height="1"/>
<rect x="7" y="7" fill="#333333" width="1" height="1"/>
<rect x="6" y="7" fill="#333333" width="1" height="1"/>
<rect x="8" y="7" fill="#333333" width="1" height="1"/>
<rect x="9" y="7" fill="#333333" width="1" height="1"/>
<rect x="10" y="7" fill="#333333" width="1" height="1"/>
<rect x="11" y="7" fill="#333333" width="1" height="1"/>
<rect x="10" y="7" fill="#333333" width="1" height="1"/>
<rect x="12" y="7" fill="#333333" width="1" height="1"/>
<rect x="13" y="7" fill="#333333" width="1" height="1"/>
<rect x="14" y="7" fill="#333333" width="1" height="1"/>
<rect x="14" y="7" fill="#333333" width="1" height="1"/>
<rect x="7" y="14" fill="#333333" width="1" height="1"/>
<rect x="7" y="13" fill="#333333" width="1" height="1"/>
<rect x="7" y="12" fill="#333333" width="1" height="1"/>
<rect x="7" y="11" fill="#333333" width="1" height="1"/>
<rect x="7" y="12" fill="#333333" width="1" height="1"/>
<rect x="7" y="10" fill="#333333" width="1" height="1"/>
<rect x="7" y="9" fill="#333333" width="1" height="1"/>
<rect x="7" y="8" fill="#333333" width="1" height="1"/>
<rect x="7" y="7" fill="#333333" width="1" height="1"/>
<rect x="7" y="8" fill="#333333" width="1" height="1"/>
<rect x="7" y="6" fill="#333333" width="1" height="1"/>
<rect x="7" y="5" fill="#333333" width="1" height="1"/>
<rect x="7" y="4" fill="#333333" width="1" height="1"/>
<rect x="7" y="3" fill="#333333" width="1" height="1"/>
<rect x="7" y="4" fill="#333333" width="1" height="1"/>
<rect x="7" y="2" fill="#333333" width="1" height="1"/>
<rect x="7" y="1" fill="#333333" width="1" height="1"/>
<rect x="7" fill="#333333" width="1" height="1"/>
<rect x="7" fill="#333333" width="1" height="1"/>
</svg>
