<?xml version="1.0" encoding="utf-8"?>
<!-- Generator: Adobe Illustrator 15.0.2, SVG Export Plug-In  -->
<!DOCTYPE svg PUBLIC "-//W3C//DTD SVG 1.1//EN" "http://www.w3.org/Graphics/SVG/1.1/DTD/svg11.dtd" [
	<!ENTITY ns_flows "http://ns.adobe.com/Flows/1.0/">
]>
<svg version="1.1"
	 xmlns="http://www.w3.org/2000/svg" xmlns:xlink="http://www.w3.org/1999/xlink" xmlns:a="http://ns.adobe.com/AdobeSVGViewerExtensions/3.0/"
	 x="0px" y="0px" width="560px" height="238px" viewBox="-6 -10 560 238" enable-background="new -6 -10 560 238"
	 xml:space="preserve">
<defs>
</defs>
<path fill="#989898" d="M20.684,81.301l-2.696-2.696c0.83-1.063,1.323-2.4,1.323-3.85c0-3.459-2.813-6.272-6.271-6.272
	s-6.272,2.813-6.272,6.272c0,3.457,2.813,6.27,6.272,6.27c1.58,0,3.025-0.586,4.13-1.556l2.672,2.675L20.684,81.301z M7.795,74.755
	c0-2.893,2.354-5.246,5.245-5.246s5.245,2.353,5.245,5.246c0,2.891-2.354,5.245-5.245,5.245S7.795,77.646,7.795,74.755z"/>
<path fill="#636464" d="M142.289,84.625c0,0,0-9.782,0-14.625c2.602,0,5.205,0,7.808,0c0.092,0.23,3.901,4.024,3.901,4.024
	S154,84.336,154,84.442s-0.081,0.175-0.177,0.175C153.726,84.617,142.289,84.625,142.289,84.625z"/>
<path fill="#FFFFFF" d="M153.955,73.99c0,0,0,6.868,0,10.37c-3.814,0-7.629,0-11.445,0c0-4.786,0-9.57,0-14.354
	c2.514,0,7.584,0,7.584,0L153.955,73.99z"/>
<path fill="#979797" d="M149.935,70.005c0.045,0,0.09,0,0.134,0c0,1.28,0,2.56,0,3.84c0.944,0.041,2.134,0.022,3.147,0.022
	c0.287,0,0.786-0.088,0.742,0.325c-0.067,0-0.135,0-0.202,0c-1.243-0.117-2.647-0.067-3.911-0.162c0-0.062,0-0.124,0-0.185
	C149.929,72.621,149.902,71.281,149.935,70.005z"/>
<path fill="#D3D3D3" d="M150.094,70.005c-0.102-0.036-0.025,3.84-0.025,3.84s3.548,0.145,3.885,0.145
	C152.516,71.5,150.196,70.04,150.094,70.005z"/>
<path fill="#CB2029" d="M144.02,82.894c-0.017,0-0.034-0.006-0.047-0.018c-0.025-0.022-0.031-0.058-0.015-0.087
	c0.634-1.105,1.361-1.961,2.158-2.546c0.461-0.874,0.813-1.89,1.047-3.019c-0.351-1.535,0.307-3.118,0.313-3.134
	c0.013-0.03,0.045-0.047,0.079-0.042c0.033,0.005,0.057,0.033,0.058,0.066c0,0.014,0.047,1.397-0.304,3.108
	c0.212,0.894,0.735,1.585,1.554,2.059c0.038,0,0.074,0,0.111,0c1.274,0,2.293,0.5,2.677,0.687c0.064,0.032,0.114,0.056,0.137,0.064
	c0.034,0.011,0.053,0.045,0.046,0.08c-0.007,0.034-0.038,0.058-0.074,0.055c-1.199-0.071-2.186-0.322-2.934-0.745
	c-0.93,0.029-1.805,0.336-2.6,0.913c-0.567,1.064-1.295,1.92-2.165,2.543C144.049,82.89,144.034,82.894,144.02,82.894z
	 M145.94,80.558c-0.605,0.5-1.167,1.166-1.673,1.989C144.916,82.021,145.477,81.354,145.94,80.558z M147.244,77.522
	c-0.213,0.936-0.509,1.792-0.883,2.55c0.699-0.457,1.455-0.717,2.252-0.778C147.939,78.857,147.48,78.262,147.244,77.522z
	 M149.129,79.424c0.612,0.297,1.37,0.492,2.261,0.577C150.946,79.793,150.124,79.457,149.129,79.424z M147.47,74.542
	c-0.149,0.493-0.352,1.379-0.232,2.294C147.413,75.855,147.458,75.018,147.47,74.542z"/>
<path fill="#676767" d="M147.223,82.538l-0.141,0.64h-0.241l0.495-2.136h0.272l0.482,2.136h-0.244l-0.142-0.64H147.223z
	 M147.669,82.34l-0.113-0.542c-0.032-0.151-0.061-0.329-0.086-0.487h-0.01c-0.026,0.161-0.058,0.345-0.09,0.487l-0.113,0.542
	H147.669z"/>
<path fill="#676767" d="M149.207,80.985v1.825c0,0.104,0.01,0.279,0.014,0.367h-0.212l-0.017-0.19h-0.009
	c-0.052,0.107-0.161,0.215-0.328,0.215c-0.26,0-0.449-0.278-0.449-0.786c0-0.541,0.228-0.794,0.466-0.794
	c0.116,0,0.225,0.05,0.285,0.18h0.007v-0.817H149.207L149.207,80.985z M148.963,82.23c0-0.032,0-0.07-0.003-0.102
	c-0.016-0.162-0.113-0.297-0.231-0.297c-0.206,0-0.276,0.281-0.276,0.585c0,0.324,0.084,0.584,0.264,0.584
	c0.077,0,0.183-0.042,0.237-0.263c0.007-0.029,0.01-0.063,0.01-0.102V82.23L148.963,82.23L148.963,82.23z"/>
<path fill="#676767" d="M150.473,82.411c0,0.592-0.276,0.792-0.517,0.792c-0.28,0-0.504-0.249-0.504-0.789
	c0-0.558,0.254-0.792,0.521-0.792C150.251,81.622,150.473,81.878,150.473,82.411z M149.699,82.411c0,0.253,0.044,0.599,0.269,0.599
	c0.212,0,0.258-0.358,0.258-0.599c0-0.234-0.045-0.596-0.264-0.596C149.74,81.815,149.699,82.177,149.699,82.411z"/>
<path fill="#676767" d="M150.711,80.985h0.244v0.842h0.006c0.08-0.151,0.196-0.205,0.331-0.205c0.244,0,0.424,0.272,0.424,0.776
	c0,0.55-0.231,0.804-0.472,0.804c-0.164,0-0.248-0.095-0.309-0.224h-0.013l-0.016,0.199h-0.208c0.003-0.088,0.013-0.263,0.013-0.367
	V80.985L150.711,80.985L150.711,80.985z M150.955,82.639c0,0.035,0.003,0.066,0.01,0.095c0.058,0.224,0.164,0.266,0.234,0.266
	c0.199,0,0.27-0.266,0.27-0.592c0-0.309-0.074-0.577-0.276-0.577c-0.116,0-0.208,0.139-0.231,0.273
	c-0.003,0.034-0.006,0.069-0.006,0.103V82.639L150.955,82.639z"/>
<path fill="#676767" d="M152.134,82.433c0,0.472,0.19,0.57,0.367,0.57c0.109,0,0.196-0.024,0.256-0.056l0.042,0.177
	c-0.087,0.044-0.218,0.073-0.344,0.073c-0.372,0-0.564-0.302-0.564-0.771c0-0.494,0.215-0.804,0.526-0.804
	c0.314,0,0.443,0.329,0.443,0.672c0,0.059-0.003,0.1-0.007,0.139H152.134L152.134,82.433z M152.622,82.252
	c0.003-0.304-0.112-0.44-0.231-0.44c-0.164,0-0.244,0.231-0.253,0.44H152.622z"/>
<rect x="139" y="70.904" fill="#CB2029" width="10.163" height="3.016"/>
<path fill="#FFFFFF" d="M141.998,71.532c0.105-0.022,0.247-0.036,0.389-0.036c0.221,0,0.397,0.03,0.519,0.145
	c0.114,0.099,0.165,0.256,0.165,0.414c0,0.205-0.062,0.351-0.162,0.455c-0.118,0.125-0.309,0.182-0.465,0.182
	c-0.024,0-0.048,0-0.073-0.003v0.704h-0.372V71.532L141.998,71.532z M142.369,72.392c0.02,0.003,0.04,0.003,0.063,0.003
	c0.188,0,0.27-0.132,0.27-0.309c0-0.165-0.068-0.294-0.241-0.294c-0.034,0-0.068,0.005-0.091,0.014V72.392L142.369,72.392z"/>
<path fill="#FFFFFF" d="M143.294,71.532c0.093-0.022,0.229-0.036,0.377-0.036c0.241,0,0.408,0.055,0.53,0.168
	c0.165,0.145,0.25,0.395,0.25,0.761c0,0.38-0.099,0.652-0.267,0.798c-0.13,0.12-0.318,0.182-0.582,0.182
	c-0.119,0-0.236-0.011-0.309-0.023V71.532z M143.666,73.1c0.021,0.005,0.046,0.005,0.066,0.005c0.178,0,0.334-0.173,0.334-0.693
	c0-0.387-0.102-0.623-0.327-0.623c-0.025,0-0.05,0-0.074,0.008V73.1z"/>
<path fill="#FFFFFF" d="M144.688,71.504h0.832v0.319h-0.459v0.484h0.431v0.304h-0.431v0.779h-0.372V71.504L144.688,71.504z"/>
<circle fill="#CB2128" cx="16.5" cy="12.5" r="12.5"/>
<path fill="#FFFFFF" d="M23.925,12.5c0,4.1-3.325,7.424-7.425,7.424l0,0c-4.102,0-7.425-3.325-7.425-7.424l0,0
	c0-4.101,3.322-7.425,7.425-7.425l0,0C20.6,5.076,23.925,8.399,23.925,12.5L23.925,12.5z"/>
<path fill="#CB2128" d="M16.815,7.347c-3.673,0-5.526,2.634-5.526,4.831c0,1.329,0.504,2.512,1.583,2.953
	c0.177,0.073,0.336,0.002,0.387-0.193c0.036-0.135,0.121-0.478,0.158-0.621c0.052-0.193,0.032-0.262-0.111-0.431
	c-0.312-0.366-0.511-0.842-0.511-1.516c0-1.954,1.462-3.703,3.806-3.703c2.077,0,3.218,1.269,3.218,2.962
	c0,2.23-0.986,4.112-2.451,4.112c-0.81,0-1.414-0.668-1.221-1.489c0.234-0.98,0.684-2.037,0.684-2.744
	c0-0.633-0.34-1.161-1.044-1.161c-0.826,0-1.49,0.855-1.49,2.001c0,0.73,0.246,1.224,0.246,1.224s-0.846,3.585-0.995,4.214
	c-0.296,1.25-0.044,2.783-0.024,2.938c0.013,0.092,0.132,0.114,0.185,0.044c0.076-0.1,1.061-1.316,1.396-2.531
	c0.094-0.344,0.544-2.125,0.544-2.125c0.269,0.512,1.054,0.962,1.888,0.962c2.486,0,4.172-2.266,4.172-5.298
	C21.71,9.483,19.768,7.347,16.815,7.347z"/>
<path fill="#45599B" d="M156.5,0C149.597,0,144,5.597,144,12.5c0,6.903,5.597,12.5,12.5,12.5c6.904,0,12.5-5.597,12.5-12.5
	C169,5.597,163.404,0,156.5,0z M159.193,12.334h-1.761c0,2.815,0,6.282,0,6.282h-2.612c0,0,0-3.433,0-6.282h-1.24v-2.22h1.24V8.678
	c0-1.027,0.489-2.635,2.635-2.635l1.935,0.007v2.155c0,0-1.177,0-1.403,0c-0.229,0-0.554,0.114-0.554,0.604v1.305h1.988
	L159.193,12.334z"/>
<path fill="#ED3733" d="M84.17,11.066c0.308,0,0.565-0.122,0.767-0.35c0.313-0.358,0.453-0.946,0.371-1.571
	c-0.146-1.116-0.944-2.043-1.776-2.068h-0.033c-0.294,0-0.558,0.121-0.759,0.349C82.431,7.781,82.3,8.341,82.38,8.964
	c0.147,1.115,0.961,2.078,1.776,2.103H84.17z"/>
<path fill="#ED3733" d="M85.078,14.429c-0.081-0.055-0.166-0.113-0.255-0.174c-0.256-0.079-0.528-0.12-0.806-0.123h-0.036
	c-1.282,0-2.407,0.776-2.407,1.662c0,0.964,0.963,1.719,2.193,1.719c1.623,0,2.446-0.559,2.446-1.662c0-0.104-0.014-0.212-0.04-0.32
	C86.063,15.101,85.672,14.833,85.078,14.429z"/>
<path fill="#ED3733" d="M86.5,0C79.597,0,74,5.597,74,12.5S79.597,25,86.5,25C93.404,25,99,19.403,99,12.5S93.404,0,86.5,0z
	 M85.315,18.498c-0.479,0.138-0.997,0.209-1.54,0.209c-0.605,0-1.188-0.07-1.729-0.208c-1.05-0.265-1.827-0.766-2.188-1.413
	c-0.156-0.28-0.236-0.578-0.236-0.887c0-0.318,0.076-0.641,0.227-0.959c0.576-1.226,2.091-2.05,3.77-2.05c0.017,0,0.034,0,0.048,0
	c-0.136-0.24-0.202-0.489-0.202-0.75c0-0.13,0.017-0.263,0.052-0.397c-1.761-0.041-3.079-1.33-3.079-3.031
	c0-1.201,0.959-2.37,2.333-2.843c0.411-0.141,0.829-0.214,1.241-0.214h3.766c0.129,0,0.243,0.083,0.283,0.205
	c0.039,0.122-0.004,0.256-0.108,0.331l-0.843,0.61c-0.05,0.036-0.111,0.056-0.174,0.056h-0.301c0.389,0.467,0.618,1.132,0.618,1.879
	c0,0.825-0.417,1.606-1.176,2.2c-0.588,0.458-0.61,0.582-0.61,0.844c0.007,0.144,0.416,0.612,0.867,0.93
	c1.05,0.744,1.442,1.473,1.442,2.689C87.773,16.965,86.808,18.064,85.315,18.498z M93.821,12.037c0,0.164-0.133,0.296-0.295,0.296
	h-2.143v2.141c0,0.164-0.132,0.296-0.295,0.296h-0.61c-0.163,0-0.296-0.133-0.296-0.296v-2.141h-2.142
	c-0.163,0-0.295-0.132-0.295-0.296v-0.609c0-0.164,0.133-0.296,0.295-0.296h2.142V8.991c0-0.164,0.133-0.296,0.296-0.296h0.61
	c0.163,0,0.295,0.133,0.295,0.296v2.141h2.143c0.162,0,0.295,0.132,0.295,0.296V12.037z"/>
<polygon fill="#EE2A3C" points="115.183,13.47 116.199,13.472 116.19,18.52 117.172,18.522 117.181,13.473 118.196,13.475 
	118.197,12.616 115.185,12.611 "/>
<path fill="#EE2A3C" d="M123.377,14.121c-0.136,0-0.27,0.034-0.402,0.104c-0.13,0.068-0.257,0.169-0.374,0.301l0.003-1.903
	l-0.881-0.001l-0.01,5.908l0.881,0.001l0.001-0.334c0.114,0.135,0.238,0.233,0.373,0.296c0.132,0.064,0.285,0.095,0.454,0.095
	c0.258,0,0.457-0.081,0.593-0.245c0.138-0.166,0.207-0.401,0.207-0.71l0.004-2.418c0.001-0.357-0.071-0.629-0.217-0.815
	C123.862,14.214,123.651,14.121,123.377,14.121z M123.323,17.513c0,0.138-0.024,0.237-0.077,0.3
	c-0.049,0.062-0.126,0.093-0.234,0.093c-0.074,0-0.144-0.017-0.21-0.047c-0.065-0.032-0.137-0.085-0.207-0.156l0.005-2.716
	c0.06-0.06,0.12-0.105,0.181-0.133c0.061-0.029,0.122-0.042,0.185-0.042c0.117,0,0.207,0.038,0.271,0.113
	c0.061,0.076,0.091,0.188,0.091,0.336L123.323,17.513z"/>
<path fill="#EE2A3C" d="M121.221,9.286c0.134,0,0.237-0.036,0.316-0.109c0.078-0.073,0.119-0.175,0.119-0.304l0.004-2.616
	c0-0.105-0.039-0.189-0.12-0.255c-0.08-0.064-0.184-0.096-0.313-0.096c-0.121,0-0.218,0.03-0.293,0.095
	c-0.074,0.066-0.111,0.15-0.112,0.255l-0.004,2.616c0,0.132,0.034,0.232,0.104,0.305C120.991,9.251,121.09,9.286,121.221,9.286z"/>
<path fill="#EE2A3C" d="M120.188,17.479c-0.082,0.095-0.171,0.172-0.271,0.235c-0.098,0.061-0.18,0.09-0.243,0.09
	c-0.081,0-0.142-0.021-0.179-0.07c-0.035-0.045-0.054-0.12-0.054-0.224l0.006-3.344l-0.87-0.001l-0.007,3.645
	c0,0.26,0.051,0.454,0.151,0.584c0.104,0.13,0.252,0.195,0.454,0.195c0.164,0,0.333-0.044,0.507-0.139
	c0.175-0.091,0.342-0.226,0.504-0.401l-0.001,0.477l0.872,0.002l0.008-4.359l-0.873-0.001L120.188,17.479z"/>
<path fill="#EE2A3C" d="M121.521,0c-6.905-0.012-12.51,5.576-12.521,12.479S114.574,24.988,121.479,25
	c6.901,0.011,12.509-5.576,12.521-12.479S128.423,0.011,121.521,0z M123.457,5.199l0.979,0.001l-0.007,3.682
	c0,0.113,0.023,0.194,0.065,0.245c0.038,0.052,0.106,0.078,0.198,0.079c0.072,0,0.163-0.035,0.273-0.102
	c0.109-0.067,0.211-0.153,0.303-0.257l0.006-3.646l0.982,0.002l-0.009,4.802l-0.981-0.002l0.001-0.532
	c-0.181,0.196-0.367,0.346-0.566,0.448c-0.194,0.101-0.384,0.152-0.568,0.152c-0.227,0-0.396-0.072-0.511-0.217
	c-0.114-0.142-0.172-0.356-0.172-0.643L123.457,5.199z M119.813,6.292c0-0.374,0.131-0.669,0.395-0.889
	c0.266-0.219,0.622-0.329,1.068-0.328c0.404,0,0.737,0.118,0.995,0.35c0.259,0.232,0.388,0.533,0.388,0.899l-0.004,2.479
	c-0.002,0.411-0.129,0.731-0.382,0.967c-0.256,0.233-0.604,0.349-1.051,0.349c-0.43-0.001-0.774-0.123-1.031-0.365
	c-0.255-0.243-0.383-0.566-0.382-0.974L119.813,6.292z M117.145,3.481l0.714,2.603h0.068l0.687-2.601l1.123,0.002l-1.291,3.807
	l-0.004,2.7l-1.105-0.002l0.004-2.579l-1.309-3.933L117.145,3.481z M129.969,17.201c-0.003,1.737-1.413,3.144-3.15,3.141
	l-10.931-0.019c-1.737-0.003-3.144-1.415-3.14-3.152l0.004-2.529c0.003-1.737,1.413-3.144,3.15-3.141l10.931,0.019
	c1.737,0.003,3.144,1.415,3.141,3.152L129.969,17.201z"/>
<path fill="#EE2A3C" d="M126.009,14.07c-0.393-0.001-0.708,0.118-0.954,0.354c-0.249,0.238-0.373,0.548-0.374,0.925l-0.004,1.958
	c0,0.421,0.112,0.751,0.337,0.989c0.222,0.24,0.529,0.36,0.92,0.361c0.435,0.001,0.761-0.11,0.979-0.335
	c0.22-0.227,0.329-0.564,0.33-1.01l0.001-0.224l-0.896-0.001l-0.001,0.199c0,0.256-0.031,0.421-0.087,0.497
	c-0.06,0.075-0.159,0.112-0.304,0.112c-0.14,0-0.236-0.043-0.295-0.133c-0.059-0.089-0.085-0.249-0.085-0.478l0.001-0.821
	l1.668,0.003l0.002-1.112c0.001-0.413-0.107-0.73-0.319-0.951C126.712,14.181,126.407,14.071,126.009,14.07z M126.35,15.785
	l-0.771-0.001l0.001-0.44c0-0.183,0.029-0.314,0.091-0.391c0.06-0.082,0.16-0.12,0.298-0.12c0.134,0,0.231,0.039,0.289,0.121
	c0.061,0.077,0.093,0.208,0.093,0.391L126.35,15.785z"/>
<circle fill="#4DA9DE" cx="51.5" cy="12.5" r="12.5"/>
<path fill="#FFFFFF" d="M56.637,9.865c0.005,0.114,0.007,0.229,0.007,0.343c0,3.502-2.666,7.541-7.541,7.541
	c-1.497,0-2.889-0.438-4.063-1.191c0.208,0.025,0.419,0.037,0.633,0.037c1.242,0,2.384-0.423,3.292-1.134
	c-1.16-0.021-2.139-0.788-2.476-1.841c0.162,0.032,0.328,0.048,0.499,0.048c0.242,0,0.476-0.033,0.699-0.093
	c-1.213-0.244-2.127-1.315-2.127-2.599c0-0.012,0-0.022,0-0.034c0.357,0.199,0.766,0.318,1.201,0.332
	c-0.711-0.476-1.179-1.287-1.179-2.206c0-0.486,0.131-0.941,0.359-1.333c1.307,1.604,3.26,2.659,5.463,2.769
	c-0.045-0.193-0.069-0.396-0.069-0.604c0-1.464,1.187-2.65,2.65-2.65c0.763,0,1.451,0.322,1.935,0.838
	c0.604-0.12,1.171-0.339,1.683-0.644c-0.197,0.619-0.617,1.139-1.165,1.466c0.537-0.064,1.047-0.206,1.522-0.417
	C57.605,9.024,57.155,9.492,56.637,9.865z"/>
<ellipse fill="#005696" cx="191.516" cy="12.515" rx="2.475" ry="2.469"/>
<path fill="#005696" d="M194.365,9.985h1.74c0.198,0,0.359-0.161,0.359-0.359V7.89c0-0.198-0.161-0.359-0.359-0.359h-1.74
	c-0.199,0-0.36,0.161-0.36,0.359v1.736C194.005,9.825,194.166,9.985,194.365,9.985z"/>
<path fill="#005696" d="M191.5,0C184.597,0,179,5.596,179,12.5c0,6.904,5.597,12.5,12.5,12.5S204,19.403,204,12.5
	C204,5.596,198.404,0,191.5,0z M197.936,17.409c0,0.843-0.686,1.526-1.53,1.526h-9.81c-0.846,0-1.53-0.684-1.53-1.526V7.591
	c0-0.843,0.685-1.526,1.53-1.526h9.81c0.845,0,1.53,0.683,1.53,1.526V17.409L197.936,17.409z"/>
<path fill="#005696" d="M195.43,12.515c0,2.154-1.756,3.906-3.914,3.906c-2.159,0-3.916-1.752-3.916-3.906
	c0-0.357,0.049-0.704,0.14-1.032h-1.204v5.597c0,0.198,0.161,0.359,0.36,0.359h9.239c0.199,0,0.36-0.161,0.36-0.359v-5.597h-1.204
	C195.382,11.812,195.43,12.157,195.43,12.515z"/>
<path fill="#42B1B4" d="M226.5,0C219.597,0,214,5.596,214,12.5c0,6.904,5.597,12.5,12.5,12.5S239,19.404,239,12.5
	C239,5.596,233.404,0,226.5,0z M235.217,16.41c0,0.662-0.573,1.199-1.28,1.199h-6.154l-4.026,3.217l1.404-3.217h-6.096
	c-0.708,0-1.28-0.537-1.28-1.199V8.108c0-0.663,0.573-1.2,1.28-1.2h14.873c0.707,0,1.28,0.537,1.28,1.2L235.217,16.41L235.217,16.41
	z"/>
<path fill="#42B1B4" d="M219.721,10.426h1.729c0.872,0,1.095,0.545,1.095,0.912c0,0.51-0.288,0.654-0.436,0.728
	c0.436,0.164,0.55,0.51,0.55,0.862c0,0.283-0.119,0.55-0.308,0.733c-0.203,0.198-0.396,0.322-1.125,0.322h-1.506V10.426z
	 M220.434,11.818h0.872c0.292,0,0.525-0.114,0.525-0.396c0-0.292-0.208-0.382-0.545-0.382h-0.852V11.818L220.434,11.818z
	 M220.434,13.369h0.912c0.362,0,0.57-0.159,0.57-0.52c0-0.313-0.268-0.431-0.535-0.431h-0.946V13.369z"/>
<path fill="#42B1B4" d="M224.041,13.339h1.769v0.644h-2.512v-3.557h0.743L224.041,13.339L224.041,13.339z"/>
<path fill="#42B1B4" d="M227.875,10.333c0.47,0,1.709,0.203,1.709,1.873s-1.239,1.872-1.709,1.872c-0.471,0-1.709-0.203-1.709-1.872
	C226.166,10.535,227.404,10.333,227.875,10.333z M227.875,13.449c0.401,0,0.966-0.248,0.966-1.244c0-0.996-0.565-1.244-0.966-1.244
	c-0.401,0-0.966,0.248-0.966,1.244C226.909,13.2,227.474,13.449,227.875,13.449z"/>
<path fill="#42B1B4" d="M231.848,12.066h1.486v1.917h-0.496l-0.074-0.446c-0.188,0.218-0.461,0.54-1.11,0.54
	c-0.857,0-1.635-0.614-1.635-1.862c0-0.971,0.54-1.888,1.739-1.883c1.09,0,1.521,0.708,1.561,1.199h-0.743
	c0-0.139-0.252-0.584-0.778-0.584c-0.53,0-1.021,0.367-1.021,1.278c0,0.971,0.53,1.224,1.036,1.224c0.164,0,0.708-0.064,0.862-0.783
	h-0.827V12.066z"/>
<path fill="#333333" d="M261.5,9.325c0.062,0,0.182-0.015,0.285-0.118L270.992,0h-18.985l9.207,9.207
	C261.317,9.31,261.437,9.325,261.5,9.325z"/>
<path fill="#333333" d="M256.622,8.035l-6.768-6.768c-0.175-0.175-0.319-0.369-0.438-0.573C249.16,1.012,249,1.411,249,1.851v13.807
	L256.622,8.035z"/>
<path fill="#333333" d="M274,15.658V1.852c0-0.44-0.16-0.839-0.417-1.157c-0.12,0.205-0.263,0.398-0.438,0.573l-6.768,6.768
	L274,15.658z"/>
<path fill="#333333" d="M250.852,18.056h21.296c0.245,0,0.478-0.05,0.692-0.136l-8.173-8.173l-1.172,1.171
	c-0.533,0.533-1.242,0.827-1.996,0.827c-0.754,0-1.463-0.293-1.996-0.827l-1.171-1.171l-8.173,8.173
	C250.374,18.005,250.607,18.056,250.852,18.056z"/>
<circle fill="#5E5E5E" cx="16.5" cy="47.5" r="12.5"/>
<path fill="#FFFFFF" d="M23.925,47.5c0,4.1-3.325,7.425-7.425,7.425l0,0c-4.102,0-7.425-3.325-7.425-7.425l0,0
	c0-4.101,3.322-7.425,7.425-7.425l0,0C20.6,40.076,23.925,43.399,23.925,47.5L23.925,47.5z"/>
<path fill="#5E5E5E" d="M16.815,42.347c-3.673,0-5.526,2.634-5.526,4.831c0,1.329,0.504,2.512,1.583,2.953
	c0.177,0.073,0.336,0.002,0.387-0.194c0.036-0.135,0.121-0.477,0.158-0.62c0.052-0.193,0.032-0.262-0.111-0.431
	c-0.312-0.366-0.511-0.842-0.511-1.516c0-1.954,1.462-3.703,3.806-3.703c2.077,0,3.218,1.269,3.218,2.962
	c0,2.23-0.986,4.112-2.451,4.112c-0.81,0-1.414-0.668-1.221-1.489c0.234-0.98,0.684-2.037,0.684-2.744
	c0-0.633-0.34-1.161-1.044-1.161c-0.826,0-1.49,0.855-1.49,2.001c0,0.73,0.246,1.224,0.246,1.224s-0.846,3.585-0.995,4.214
	c-0.296,1.25-0.044,2.783-0.024,2.938c0.013,0.092,0.132,0.114,0.185,0.045c0.076-0.1,1.061-1.316,1.396-2.531
	c0.094-0.344,0.544-2.125,0.544-2.125c0.269,0.512,1.054,0.962,1.888,0.962c2.486,0,4.172-2.266,4.172-5.298
	C21.71,44.483,19.768,42.347,16.815,42.347z"/>
<path fill="#5E5E5E" d="M156.5,35c-6.904,0-12.5,5.597-12.5,12.5c0,6.903,5.597,12.5,12.5,12.5S169,54.403,169,47.5
	C169,40.597,163.404,35,156.5,35z M159.194,47.334h-1.761c0,2.815,0,6.282,0,6.282h-2.612c0,0,0-3.433,0-6.282h-1.241v-2.22h1.241
	v-1.436c0-1.027,0.488-2.635,2.635-2.635l1.934,0.007v2.155c0,0-1.176,0-1.403,0c-0.229,0-0.553,0.114-0.553,0.604v1.305h1.988
	L159.194,47.334z"/>
<path fill="#5E5E5E" d="M84.17,46.066c0.308,0,0.565-0.121,0.767-0.35c0.313-0.358,0.453-0.946,0.371-1.57
	c-0.146-1.116-0.944-2.043-1.776-2.068h-0.033c-0.294,0-0.558,0.121-0.759,0.349c-0.309,0.354-0.439,0.914-0.359,1.537
	c0.147,1.115,0.961,2.078,1.776,2.103H84.17z"/>
<path fill="#5E5E5E" d="M85.078,49.429c-0.081-0.055-0.166-0.113-0.255-0.174c-0.256-0.079-0.528-0.12-0.806-0.123h-0.036
	c-1.282,0-2.407,0.776-2.407,1.662c0,0.964,0.963,1.718,2.193,1.718c1.623,0,2.446-0.559,2.446-1.662c0-0.104-0.014-0.212-0.04-0.32
	C86.063,50.101,85.672,49.833,85.078,49.429z"/>
<path fill="#5E5E5E" d="M86.5,35C79.597,35,74,40.597,74,47.5S79.597,60,86.5,60C93.404,60,99,54.403,99,47.5S93.404,35,86.5,35z
	 M85.315,53.498c-0.479,0.139-0.997,0.209-1.54,0.209c-0.605,0-1.188-0.07-1.729-0.208c-1.05-0.265-1.827-0.767-2.188-1.413
	c-0.156-0.28-0.236-0.578-0.236-0.887c0-0.318,0.076-0.641,0.227-0.959c0.576-1.227,2.091-2.05,3.77-2.05c0.017,0,0.034,0,0.048,0
	c-0.136-0.24-0.202-0.489-0.202-0.75c0-0.13,0.017-0.263,0.052-0.397c-1.761-0.041-3.079-1.33-3.079-3.031
	c0-1.201,0.959-2.37,2.333-2.843c0.411-0.141,0.829-0.214,1.241-0.214h3.766c0.129,0,0.243,0.083,0.283,0.205
	c0.039,0.122-0.004,0.256-0.108,0.331l-0.843,0.61c-0.05,0.036-0.111,0.056-0.174,0.056h-0.301c0.389,0.467,0.618,1.132,0.618,1.879
	c0,0.825-0.417,1.606-1.176,2.201c-0.588,0.457-0.61,0.582-0.61,0.843c0.007,0.144,0.416,0.612,0.867,0.93
	c1.05,0.744,1.442,1.473,1.442,2.689C87.773,51.965,86.808,53.064,85.315,53.498z M93.821,47.037c0,0.164-0.133,0.296-0.295,0.296
	h-2.143v2.141c0,0.164-0.132,0.296-0.295,0.296h-0.61c-0.163,0-0.296-0.133-0.296-0.296v-2.141h-2.142
	c-0.163,0-0.295-0.132-0.295-0.296v-0.609c0-0.164,0.133-0.296,0.295-0.296h2.142v-2.141c0-0.164,0.133-0.296,0.296-0.296h0.61
	c0.163,0,0.295,0.133,0.295,0.296v2.141h2.143c0.162,0,0.295,0.132,0.295,0.296V47.037z"/>
<polygon fill="#5E5E5E" points="115.183,48.47 116.199,48.472 116.19,53.52 117.172,53.522 117.181,48.473 118.196,48.475 
	118.197,47.615 115.185,47.611 "/>
<path fill="#5E5E5E" d="M123.377,49.121c-0.136,0-0.27,0.034-0.402,0.104c-0.13,0.068-0.257,0.169-0.374,0.301l0.003-1.903
	l-0.881-0.001l-0.01,5.908l0.881,0.001l0.001-0.334c0.114,0.135,0.238,0.233,0.373,0.296c0.132,0.064,0.285,0.095,0.454,0.095
	c0.258,0,0.457-0.081,0.593-0.245c0.138-0.166,0.207-0.401,0.207-0.71l0.004-2.418c0.001-0.357-0.071-0.629-0.217-0.815
	C123.862,49.214,123.651,49.121,123.377,49.121z M123.323,52.514c0,0.138-0.024,0.237-0.077,0.299
	c-0.049,0.063-0.126,0.094-0.234,0.093c-0.074,0-0.144-0.017-0.21-0.047c-0.065-0.032-0.137-0.085-0.207-0.156l0.005-2.716
	c0.06-0.06,0.12-0.105,0.181-0.133c0.061-0.029,0.122-0.042,0.185-0.042c0.117,0,0.207,0.038,0.271,0.113
	c0.061,0.076,0.091,0.188,0.091,0.336L123.323,52.514z"/>
<path fill="#5E5E5E" d="M121.221,44.286c0.134,0,0.237-0.036,0.316-0.109c0.078-0.073,0.119-0.175,0.119-0.304l0.004-2.616
	c0-0.104-0.039-0.189-0.12-0.255c-0.08-0.064-0.184-0.096-0.313-0.096c-0.121,0-0.218,0.03-0.293,0.095
	c-0.074,0.066-0.111,0.15-0.112,0.255l-0.004,2.616c0,0.132,0.034,0.232,0.104,0.305C120.991,44.251,121.09,44.286,121.221,44.286z"
	/>
<path fill="#5E5E5E" d="M120.188,52.479c-0.082,0.095-0.171,0.172-0.271,0.235c-0.098,0.061-0.18,0.09-0.243,0.09
	c-0.081,0-0.142-0.021-0.179-0.07c-0.035-0.045-0.054-0.12-0.054-0.224l0.006-3.344l-0.87-0.001l-0.007,3.645
	c0,0.261,0.051,0.454,0.151,0.584c0.104,0.13,0.252,0.195,0.454,0.195c0.164,0,0.333-0.044,0.507-0.138
	c0.175-0.091,0.342-0.226,0.504-0.401l-0.001,0.477l0.872,0.002l0.008-4.359l-0.873-0.001L120.188,52.479z"/>
<path fill="#5E5E5E" d="M121.521,35c-6.905-0.012-12.51,5.576-12.521,12.479S114.574,59.988,121.479,60
	c6.901,0.011,12.509-5.576,12.521-12.479S128.423,35.011,121.521,35z M123.457,40.199l0.979,0.001l-0.007,3.682
	c0,0.113,0.023,0.194,0.065,0.245c0.038,0.052,0.106,0.078,0.198,0.079c0.072,0,0.163-0.035,0.273-0.102
	c0.109-0.067,0.211-0.153,0.303-0.257l0.006-3.646l0.982,0.002l-0.009,4.802l-0.981-0.002l0.001-0.532
	c-0.181,0.195-0.367,0.346-0.566,0.447c-0.194,0.101-0.384,0.153-0.568,0.152c-0.227,0-0.396-0.072-0.511-0.217
	c-0.114-0.142-0.172-0.355-0.172-0.642L123.457,40.199z M119.813,41.292c0-0.374,0.131-0.669,0.395-0.889
	c0.266-0.219,0.622-0.329,1.068-0.328c0.404,0,0.737,0.118,0.995,0.35c0.259,0.232,0.388,0.533,0.388,0.899l-0.004,2.479
	c-0.002,0.411-0.129,0.731-0.382,0.967c-0.256,0.233-0.604,0.349-1.051,0.349c-0.43-0.001-0.774-0.123-1.031-0.365
	c-0.255-0.243-0.383-0.565-0.382-0.974L119.813,41.292z M117.145,38.481l0.714,2.603h0.068l0.687-2.601l1.123,0.002l-1.291,3.807
	l-0.004,2.7l-1.105-0.002l0.004-2.579l-1.309-3.933L117.145,38.481z M129.969,52.201c-0.003,1.737-1.413,3.144-3.15,3.141
	l-10.931-0.019c-1.737-0.003-3.144-1.415-3.14-3.152l0.004-2.529c0.003-1.737,1.413-3.144,3.15-3.141l10.931,0.019
	c1.737,0.003,3.144,1.415,3.141,3.152L129.969,52.201z"/>
<path fill="#5E5E5E" d="M126.009,49.07c-0.393,0-0.708,0.118-0.954,0.354c-0.249,0.238-0.373,0.548-0.374,0.925l-0.004,1.958
	c0,0.421,0.112,0.751,0.337,0.989c0.222,0.24,0.529,0.36,0.92,0.361c0.435,0.001,0.761-0.11,0.979-0.335
	c0.22-0.227,0.329-0.564,0.33-1.01l0.001-0.224l-0.896-0.001l-0.001,0.199c0,0.256-0.031,0.421-0.087,0.497
	c-0.06,0.075-0.159,0.112-0.304,0.112c-0.14,0-0.236-0.043-0.295-0.133c-0.059-0.09-0.085-0.249-0.085-0.478l0.001-0.821
	l1.668,0.003l0.002-1.112c0.001-0.413-0.107-0.73-0.319-0.951C126.712,49.181,126.407,49.071,126.009,49.07z M126.35,50.785
	l-0.771-0.001l0.001-0.44c0-0.183,0.029-0.314,0.091-0.391c0.06-0.082,0.16-0.12,0.298-0.12c0.134,0,0.231,0.039,0.289,0.121
	c0.061,0.077,0.093,0.208,0.093,0.391L126.35,50.785z"/>
<path fill="#5E5E5E" d="M64,47.5C64,54.404,58.404,60,51.5,60S39,54.404,39,47.5S44.596,35,51.5,35C58.403,35,64,40.596,64,47.5z
	 M57.959,43.494c-0.476,0.211-0.986,0.353-1.522,0.417c0.548-0.328,0.967-0.847,1.165-1.466c-0.512,0.304-1.079,0.524-1.683,0.644
	c-0.483-0.516-1.172-0.838-1.935-0.838c-1.463,0-2.65,1.187-2.65,2.65c0,0.208,0.024,0.41,0.069,0.604
	c-2.203-0.109-4.156-1.165-5.463-2.769c-0.228,0.392-0.359,0.847-0.359,1.333c0,0.919,0.468,1.73,1.179,2.206
	c-0.435-0.014-0.843-0.133-1.201-0.332c0,0.01,0,0.021,0,0.033c0,1.284,0.914,2.355,2.127,2.599
	c-0.223,0.061-0.457,0.093-0.699,0.093c-0.17,0-0.337-0.017-0.499-0.048c0.337,1.053,1.316,1.819,2.476,1.841
	c-0.907,0.711-2.05,1.134-3.292,1.134c-0.214,0-0.424-0.012-0.633-0.037c1.174,0.752,2.567,1.191,4.063,1.191
	c4.875,0,7.541-4.039,7.541-7.542c0-0.114-0.002-0.229-0.007-0.342C57.155,44.492,57.605,44.025,57.959,43.494z"/>
<path fill="#5E5E5E" d="M194.365,44.985h1.74c0.199,0,0.36-0.161,0.36-0.359V42.89c0-0.198-0.161-0.359-0.36-0.359h-1.74
	c-0.199,0-0.36,0.161-0.36,0.359v1.736C194.005,44.825,194.166,44.985,194.365,44.985z"/>
<path fill="#5E5E5E" d="M191.5,35c-6.904,0-12.5,5.596-12.5,12.5c0,6.904,5.596,12.5,12.5,12.5c6.903,0,12.5-5.596,12.5-12.5
	C204,40.596,198.404,35,191.5,35z M197.935,52.409c0,0.843-0.685,1.526-1.53,1.526h-9.81c-0.845,0-1.53-0.684-1.53-1.526v-9.817
	c0-0.843,0.685-1.527,1.53-1.527h9.81c0.845,0,1.53,0.684,1.53,1.527V52.409L197.935,52.409z"/>
<ellipse fill="#5E5E5E" cx="191.515" cy="47.515" rx="2.475" ry="2.469"/>
<path fill="#5E5E5E" d="M195.43,47.515c0,2.154-1.757,3.906-3.915,3.906s-3.915-1.752-3.915-3.906c0-0.357,0.048-0.704,0.139-1.032
	h-1.204v5.597c0,0.198,0.161,0.359,0.36,0.359h9.24c0.199,0,0.36-0.161,0.36-0.359v-5.597h-1.204
	C195.381,46.812,195.43,47.157,195.43,47.515z"/>
<path fill="#5E5E5E" d="M226.5,35c-6.903,0-12.5,5.596-12.5,12.5c0,6.904,5.597,12.5,12.5,12.5S239,54.404,239,47.5
	C239,40.596,233.404,35,226.5,35z M235.217,51.41c0,0.662-0.573,1.199-1.28,1.199h-6.154l-4.026,3.217l1.404-3.217h-6.096
	c-0.708,0-1.281-0.537-1.281-1.199v-8.302c0-0.663,0.573-1.2,1.281-1.2h14.873c0.707,0,1.279,0.537,1.279,1.2V51.41L235.217,51.41z"
	/>
<path fill="#5E5E5E" d="M219.721,45.426h1.729c0.872,0,1.096,0.545,1.096,0.912c0,0.51-0.288,0.654-0.436,0.728
	c0.436,0.164,0.549,0.51,0.549,0.862c0,0.283-0.119,0.55-0.307,0.733c-0.203,0.198-0.396,0.322-1.125,0.322h-1.506V45.426z
	 M220.434,46.818h0.872c0.292,0,0.525-0.114,0.525-0.396c0-0.292-0.208-0.381-0.546-0.381h-0.852V46.818L220.434,46.818z
	 M220.434,48.369h0.912c0.361,0,0.569-0.159,0.569-0.52c0-0.313-0.268-0.431-0.535-0.431h-0.946V48.369z"/>
<path fill="#5E5E5E" d="M224.041,48.339h1.768v0.644h-2.512v-3.557h0.743L224.041,48.339L224.041,48.339z"/>
<path fill="#5E5E5E" d="M227.875,45.333c0.471,0,1.709,0.203,1.709,1.873s-1.238,1.872-1.709,1.872s-1.709-0.203-1.709-1.872
	C226.166,45.535,227.404,45.333,227.875,45.333z M227.875,48.449c0.4,0,0.966-0.248,0.966-1.244c0-0.996-0.565-1.244-0.966-1.244
	c-0.401,0-0.967,0.248-0.967,1.244C226.908,48.2,227.474,48.449,227.875,48.449z"/>
<path fill="#5E5E5E" d="M231.848,47.066h1.486v1.917h-0.495l-0.074-0.446c-0.188,0.218-0.461,0.54-1.11,0.54
	c-0.856,0-1.635-0.614-1.635-1.862c0-0.971,0.541-1.888,1.739-1.883c1.09,0,1.521,0.708,1.561,1.199h-0.743
	c0-0.139-0.252-0.584-0.777-0.584c-0.53,0-1.021,0.367-1.021,1.278c0,0.971,0.531,1.224,1.036,1.224
	c0.163,0,0.708-0.064,0.862-0.783h-0.828V47.066z"/>
<path fill="#5E5E5E" d="M261.5,44.325c0.062,0,0.182-0.015,0.285-0.118L270.992,35h-18.985l9.207,9.207
	C261.317,44.31,261.437,44.325,261.5,44.325z"/>
<path fill="#5E5E5E" d="M256.622,43.035l-6.768-6.768c-0.175-0.175-0.319-0.369-0.438-0.573C249.16,36.012,249,36.411,249,36.851
	v13.807L256.622,43.035z"/>
<path fill="#5E5E5E" d="M274,50.658V36.852c0-0.44-0.16-0.839-0.417-1.157c-0.12,0.205-0.263,0.398-0.438,0.573l-6.768,6.768
	L274,50.658z"/>
<path fill="#5E5E5E" d="M250.852,53.055h21.296c0.245,0,0.478-0.05,0.692-0.136l-8.173-8.173l-1.172,1.171
	c-0.533,0.533-1.242,0.827-1.996,0.827c-0.754,0-1.463-0.293-1.996-0.827l-1.171-1.171l-8.173,8.173
	C250.374,53.005,250.607,53.055,250.852,53.055z"/>
<path fill="#010101" d="M4,95.25h21.529v2.496H7.058v7.207h17.754v2.496H7.058v10.393H4V95.25z"/>
<path fill="#010101" d="M32.949,95.25h18.066c6.521,0,7.551,2.152,7.551,6.396v1.84c0,3.184-1.81,4.057-4.149,4.275v0.063
	c3.12,0.561,3.868,2.186,3.868,4.244v5.772h-2.87v-4.963c0-3.526-1.716-3.964-4.493-3.964H36.007v8.927h-3.058V95.25z
	 M50.672,106.42c3.401,0,4.837-0.904,4.837-3.275v-2.061c0-2.527-1.092-3.338-5.585-3.338H36.007v8.674H50.672z"/>
<path fill="#010101" d="M66.89,95.25h22.185v2.496H69.947v7.207h18.378v2.496H69.947v7.897h19.252v2.494H66.89V95.25z"/>
<path fill="#010101" d="M96.615,95.25h4.556l20.688,19.845V95.25h3.058v22.592h-4.556L99.674,97.994v19.848h-3.059V95.25z"/>
<path fill="#010101" d="M133.086,103.455c0-5.709,1.935-8.455,8.05-8.455h11.701c5.555,0,7.083,2.59,7.083,5.615v1.936h-2.684v-1.03
	c0-3.838-2.371-4.025-5.18-4.025h-10.608c-2.934,0-5.305,0.873-5.305,4.805v8.488c0,3.933,2.371,4.808,5.305,4.808h10.703
	c4.118,0,5.304-0.875,5.304-3.933v-1.404h2.87v1.527c0,4.09-1.31,6.305-7.645,6.305h-11.545c-6.115,0-8.05-2.745-8.05-8.458
	L133.086,103.455L133.086,103.455z"/>
<path fill="#010101" d="M168.216,95.25h3.058v9.703h20.407V95.25h3.058v22.592h-3.058v-10.393h-20.407v10.393h-3.058V95.25z"/>
<path fill="#010101" d="M221.098,103.455c0-5.709,1.935-8.455,8.051-8.455h11.7c5.554,0,7.083,2.59,7.083,5.615v1.936h-2.684v-1.03
	c0-3.838-2.371-4.025-5.179-4.025H229.46c-2.933,0-5.305,0.873-5.305,4.805v8.488c0,3.933,2.372,4.808,5.305,4.808h10.702
	c4.119,0,5.305-0.875,5.305-3.933v-1.404h2.871v1.527c0,4.09-1.312,6.305-7.645,6.305h-11.545c-6.116,0-8.051-2.745-8.051-8.458
	L221.098,103.455L221.098,103.455z"/>
<path fill="#010101" d="M255.635,103.455c0-5.709,1.935-8.455,8.051-8.455h13.01c6.117,0,8.052,2.746,8.052,8.455v6.179
	c0,5.713-1.935,8.458-8.052,8.458h-13.01c-6.116,0-8.051-2.745-8.051-8.458V103.455z M281.688,102.301
	c0-3.932-2.37-4.805-5.304-4.805h-12.388c-2.933,0-5.305,0.873-5.305,4.805v8.488c0,3.933,2.372,4.808,5.305,4.808h12.388
	c2.934,0,5.304-0.875,5.304-4.808V102.301z"/>
<path fill="#010101" d="M292.916,95.25h4.557l20.688,19.845V95.25h3.059v22.592h-4.555l-20.688-19.848v19.848h-3.06V95.25
	L292.916,95.25z"/>
<path fill="#010101" d="M329.792,95.25h4.555l20.688,19.845V95.25h3.059v22.592h-4.555l-20.689-19.848v19.848h-3.057V95.25z"/>
<path fill="#010101" d="M366.855,95.25h22.186v2.496h-19.129v7.207h18.379v2.496h-18.379v7.897h19.254v2.494h-22.311V95.25z"/>
<path fill="#010101" d="M396.177,103.455c0-5.709,1.934-8.455,8.049-8.455h11.701c5.555,0,7.082,2.59,7.082,5.615v1.936h-2.684
	v-1.03c0-3.838-2.371-4.025-5.18-4.025h-10.609c-2.934,0-5.303,0.873-5.303,4.805v8.488c0,3.933,2.369,4.808,5.303,4.808h10.705
	c4.117,0,5.303-0.875,5.303-3.933v-1.404h2.871v1.527c0,4.09-1.311,6.305-7.645,6.305h-11.547c-6.115,0-8.049-2.745-8.049-8.458
	v-6.179H396.177z"/>
<path fill="#010101" d="M440.261,97.746h-11.42V95.25h25.898v2.496h-11.42v20.096h-3.061V97.746H440.261z"/>
<path fill="#010101" d="M461.312,95.25h3.059v22.592h-3.059V95.25z"/>
<path fill="#010101" d="M472.824,103.455c0-5.709,1.934-8.455,8.049-8.455h13.012c6.118,0,8.051,2.746,8.051,8.455v6.179
	c0,5.713-1.934,8.458-8.051,8.458h-13.012c-6.115,0-8.049-2.745-8.049-8.458V103.455z M498.879,102.301
	c0-3.932-2.373-4.805-5.307-4.805h-12.389c-2.932,0-5.303,0.873-5.303,4.805v8.488c0,3.933,2.371,4.808,5.303,4.808h12.389
	c2.934,0,5.307-0.875,5.307-4.808V102.301z"/>
<path fill="#010101" d="M510.104,95.25h4.557l20.688,19.845V95.25h3.059v22.592h-4.557l-20.688-19.848v19.848h-3.059V95.25z"/>
<path fill="#010101" d="M4,155.141h12.085v1.401H5.717v4.045h9.966v1.401H5.717v5.834H4V155.141z"/>
<path fill="#010101" d="M20.251,155.141h10.142c3.661,0,4.239,1.208,4.239,3.59v1.033c0,1.788-1.017,2.278-2.329,2.4v0.035
	c1.751,0.314,2.171,1.227,2.171,2.382v3.24h-1.611v-2.786c0-1.979-0.963-2.225-2.522-2.225h-8.373v5.011h-1.717V155.141z
	 M30.2,161.411c1.909,0,2.715-0.508,2.715-1.839v-1.157c0-1.419-0.613-1.874-3.135-1.874h-7.813v4.869H30.2z"/>
<path fill="#010101" d="M39.305,155.141h12.454v1.401H41.021v4.045h10.317v1.401H41.021v4.433h10.808v1.4H39.305V155.141z"/>
<path fill="#010101" d="M55.991,155.141h2.558l11.614,11.14v-11.14h1.716v12.682h-2.558l-11.613-11.142v11.142h-1.717V155.141z"/>
<path fill="#010101" d="M76.465,159.747c0-3.205,1.086-4.747,4.519-4.747h6.569c3.118,0,3.976,1.454,3.976,3.152v1.086h-1.507
	v-0.578c0-2.155-1.331-2.259-2.908-2.259h-5.955c-1.647,0-2.978,0.49-2.978,2.697v4.766c0,2.207,1.331,2.698,2.978,2.698h6.008
	c2.312,0,2.978-0.491,2.978-2.207v-0.789h1.611v0.857c0,2.296-0.735,3.539-4.292,3.539h-6.481c-3.433,0-4.519-1.541-4.519-4.748
	L76.465,159.747L76.465,159.747z"/>
<path fill="#010101" d="M96.186,155.141h1.717v5.447h11.456v-5.447h1.717v12.682h-1.717v-5.834H97.903v5.834h-1.717V155.141z"/>
<path fill="#010101" d="M125.873,159.747c0-3.205,1.086-4.747,4.52-4.747h6.568c3.118,0,3.977,1.454,3.977,3.152v1.086h-1.507
	v-0.578c0-2.155-1.331-2.259-2.907-2.259h-5.956c-1.646,0-2.978,0.49-2.978,2.697v4.766c0,2.207,1.331,2.698,2.978,2.698h6.008
	c2.313,0,2.979-0.491,2.979-2.207v-0.789h1.611v0.857c0,2.296-0.736,3.539-4.292,3.539h-6.481c-3.433,0-4.52-1.541-4.52-4.748
	L125.873,159.747L125.873,159.747z"/>
<path fill="#010101" d="M145.26,159.747c0-3.205,1.086-4.747,4.52-4.747h7.303c3.434,0,4.52,1.542,4.52,4.747v3.468
	c0,3.207-1.086,4.748-4.52,4.748h-7.303c-3.434,0-4.52-1.541-4.52-4.748V159.747z M159.886,159.098c0-2.207-1.331-2.697-2.977-2.697
	h-6.955c-1.646,0-2.978,0.49-2.978,2.697v4.766c0,2.207,1.332,2.698,2.978,2.698h6.955c1.646,0,2.977-0.491,2.977-2.698V159.098z"/>
<path fill="#010101" d="M166.189,155.141h2.558l11.613,11.14v-11.14h1.717v12.682h-2.557l-11.614-11.142v11.142h-1.717V155.141
	L166.189,155.141z"/>
<path fill="#010101" d="M186.89,155.141h2.557l11.613,11.14v-11.14h1.717v12.682h-2.557l-11.614-11.142v11.142h-1.716V155.141z"/>
<path fill="#010101" d="M207.696,155.141h12.454v1.401h-10.738v4.045h10.317v1.401h-10.317v4.433h10.809v1.4h-12.524V155.141z"/>
<path fill="#010101" d="M224.157,159.747c0-3.205,1.085-4.747,4.518-4.747h6.569c3.118,0,3.976,1.454,3.976,3.152v1.086h-1.507
	v-0.578c0-2.155-1.331-2.259-2.908-2.259h-5.956c-1.647,0-2.977,0.49-2.977,2.697v4.766c0,2.207,1.33,2.698,2.977,2.698h6.009
	c2.311,0,2.977-0.491,2.977-2.207v-0.789h1.612v0.857c0,2.296-0.736,3.539-4.292,3.539h-6.482c-3.433,0-4.518-1.541-4.518-4.748
	L224.157,159.747L224.157,159.747z"/>
<path fill="#010101" d="M248.904,156.542h-6.411v-1.401h14.539v1.401h-6.411v11.281h-1.718L248.904,156.542L248.904,156.542z"/>
<path fill="#010101" d="M260.722,155.141h1.717v12.682h-1.717V155.141z"/>
<path fill="#010101" d="M267.184,159.747c0-3.205,1.085-4.747,4.519-4.747h7.304c3.435,0,4.52,1.542,4.52,4.747v3.468
	c0,3.207-1.085,4.748-4.52,4.748h-7.304c-3.434,0-4.519-1.541-4.519-4.748V159.747z M281.811,159.098
	c0-2.207-1.332-2.697-2.979-2.697h-6.955c-1.646,0-2.977,0.49-2.977,2.697v4.766c0,2.207,1.332,2.698,2.977,2.698h6.955
	c1.647,0,2.979-0.491,2.979-2.698V159.098z"/>
<path fill="#010101" d="M288.111,155.141h2.558l11.613,11.14v-11.14H304v12.682h-2.558l-11.613-11.142v11.142h-1.717V155.141z"/>
<path fill="#989898" d="M63,85.186l-4.457-4.456c1.372-1.758,2.187-3.968,2.187-6.363C60.731,68.649,56.083,64,50.367,64
	C44.651,64,40,68.649,40,74.367c0,5.714,4.65,10.362,10.368,10.362c2.611,0,5-0.968,6.826-2.571l4.417,4.421L63,85.186z
	 M41.698,74.367c0-4.782,3.89-8.671,8.669-8.671s8.669,3.889,8.669,8.671c0,4.777-3.89,8.669-8.669,8.669
	S41.698,79.144,41.698,74.367z"/>
<path fill="#010101" d="M38.936,194.936V198h-1.872v-3.064H34v-1.872h3.064V190h1.872v3.064H42v1.872H38.936z"/>
<polyline fill="none" stroke="#000000" stroke-width="1.75" points="49,194 52.296,194 57,194 "/>
<circle fill="#FFFFFF" cx="139" cy="195" r="15"/>
<line fill="none" stroke="#222222" stroke-miterlimit="10" x1="139.25" y1="187.25" x2="139.25" y2="202.25"/>
<line fill="none" stroke="#222222" stroke-miterlimit="10" x1="146.75" y1="194.75" x2="131.75" y2="194.75"/>
<circle fill="#FFFFFF" cx="94" cy="200" r="25"/>
<polyline fill="none" stroke="#010101" stroke-width="4" stroke-miterlimit="10" points="106.991,194.754 94,207.744 81.01,194.754 
	"/>
<circle fill="#FFFFFF" cx="189" cy="200" r="25"/>
<polyline fill="none" stroke="#010101" stroke-width="4" stroke-miterlimit="10" points="176.009,205.246 189,192.256 
	201.99,205.246 "/>
<polyline fill="none" stroke="#010101" stroke-width="4" stroke-miterlimit="10" points="260,190 247,203 234,190 "/>
<polyline fill="none" stroke="#010101" stroke-width="4" stroke-miterlimit="10" points="289,203 302,190 315,203 "/>
<rect x="334" y="180" fill="none" stroke="#CDCCCC" stroke-width="1.4" stroke-miterlimit="10" width="24" height="16"/>
<polyline fill="none" stroke="#CDCCCC" stroke-width="1.4" stroke-miterlimit="10" points="358,180 346.044,189.304 334,180 "/>
<line fill="none" stroke="#CDCCCC" stroke-width="1.4" stroke-miterlimit="10" x1="348.213" y1="187.618" x2="358" y2="196"/>
<line fill="none" stroke="#CDCCCC" stroke-width="1.4" stroke-miterlimit="10" x1="334" y1="196" x2="343.86" y2="187.617"/>
<path fill="#989898" d="M25,208H0v-19.548L12.449,180L25,188.452V208z M0.329,207.673h24.342v-19.048l-12.221-8.229l-12.121,8.229
	V207.673z"/>
<polygon fill="#989898" points="6.983,188.857 6.984,191.883 7.772,191.883 7.775,200.633 6.987,200.633 6.988,203.659 
	13.162,203.657 13.161,200.631 11.584,200.632 11.583,197.786 12.502,197.785 12.503,198.428 15.48,198.427 15.479,194.117 
	12.501,194.118 12.501,194.76 11.582,194.76 11.581,191.881 14.799,191.88 14.799,192.925 18.017,192.924 18.016,188.854 "/>
<path fill="#989798" d="M87,69c0,2.209-4,10.701-4,10.701S79,71.209,79,69c0-2.209,1.791-4,4-4C85.208,65,87,66.791,87,69z
	 M81.292,67.013v1.046h0.271v3.025h-0.271v1.046h2.122v-1.046h-0.542V70.1h0.316v0.222h1.023v-1.49h-1.023v0.222h-0.316v-0.995
	h1.106v0.361h1.106v-1.407H81.292z"/>
<path display="none" fill="none" stroke="#FFFFFF" stroke-width="6" stroke-miterlimit="10" d="M117.575,74.82v-1.277v-0.817
	c0-0.722,0.712-1.308,1.461-1.308l0,0c0.749,0,1.46,0.585,1.46,1.308v0.771v1.323"/>
<circle display="none" fill="#FFFFFF" cx="117.426" cy="74.927" r="0.609"/>
<circle display="none" fill="#FFFFFF" cx="120.642" cy="74.927" r="0.609"/>
<path fill="#989898" d="M123.503,73.067h-2.13v-0.943c0-1.132-1.097-2.124-2.337-2.124s-2.337,0.992-2.337,2.124v0.943h-2.093
	L114,83h0.206h9.696h0.206L123.503,73.067z M117.575,72.124c0-0.706,0.649-1.348,1.461-1.348c0.813,0,1.46,0.643,1.46,1.348v0.943
	h-2.921V72.124z"/>
<polygon fill="#F4F4F4" points="117.471,75.595 117.471,76.526 117.712,76.526 117.712,79.217 117.471,79.217 117.471,80.147 
	119.359,80.147 119.359,79.217 118.877,79.217 118.877,78.342 119.158,78.342 119.158,78.539 120.068,78.539 120.068,77.214 
	119.158,77.214 119.158,77.411 118.877,77.411 118.877,76.526 119.861,76.526 119.861,76.847 120.845,76.847 120.845,75.595 "/>
<circle fill="#282828" cx="394" cy="190" r="15"/>
<rect x="393.75" y="182.25" fill="#CDCCCC" width="1" height="15"/>
<rect x="386.75" y="189.25" fill="#CDCCCC" width="15" height="1"/>
</svg>
