<?xml version="1.0" encoding="utf-8"?>
<!-- Generator: Adobe Illustrator 15.0.2, SVG Export Plug-In . SVG Version: 6.00 Build 0)  -->
<!DOCTYPE svg PUBLIC "-//W3C//DTD SVG 1.1//EN" "http://www.w3.org/Graphics/SVG/1.1/DTD/svg11.dtd">
<svg version="1.1" id="Layer_1" xmlns="http://www.w3.org/2000/svg" xmlns:xlink="http://www.w3.org/1999/xlink" x="0px" y="0px"
	 width="534.405px" height="23.092px" viewBox="0 0 534.405 23.092" enable-background="new 0 0 534.405 23.092"
	 xml:space="preserve">
<g>
	<path d="M0,0.25h21.529v2.496H3.058v7.207h17.754v2.496H3.058v10.393H0V0.25z"/>
	<path d="M28.949,0.25h18.066c6.521,0,7.551,2.152,7.551,6.396v1.84c0,3.184-1.81,4.057-4.149,4.275v0.062
		c3.12,0.561,3.868,2.186,3.868,4.244v5.773h-2.87v-4.963c0-3.526-1.716-3.964-4.493-3.964H32.007v8.927h-3.058V0.25z M46.672,11.42
		c3.401,0,4.837-0.904,4.837-3.275V6.084c0-2.527-1.092-3.338-5.585-3.338H32.007v8.674H46.672z"/>
	<path d="M62.89,0.25h22.185v2.496H65.947v7.207h18.378v2.496H65.947v7.897h19.252v2.495H62.89V0.25z"/>
	<path d="M92.615,0.25h4.556l20.688,19.845V0.25h3.058v22.592h-4.556L95.674,2.994v19.848h-3.059V0.25z"/>
	<path d="M129.086,8.455c0-5.709,1.935-8.455,8.05-8.455h11.701c5.555,0,7.083,2.59,7.083,5.615v1.936h-2.684V6.521
		c0-3.838-2.371-4.025-5.18-4.025h-10.608c-2.934,0-5.305,0.873-5.305,4.805v8.488c0,3.933,2.371,4.807,5.305,4.807h10.703
		c4.118,0,5.304-0.874,5.304-3.932V15.26h2.87v1.527c0,4.09-1.31,6.305-7.645,6.305h-11.545c-6.115,0-8.05-2.745-8.05-8.458V8.455z"
		/>
	<path d="M164.216,0.25h3.058v9.703h20.407V0.25h3.058v22.592h-3.058V12.449h-20.407v10.393h-3.058V0.25z"/>
	<path d="M217.098,8.455c0-5.709,1.935-8.455,8.051-8.455h11.7c5.554,0,7.083,2.59,7.083,5.615v1.936h-2.684V6.521
		c0-3.838-2.371-4.025-5.179-4.025H225.46c-2.933,0-5.305,0.873-5.305,4.805v8.488c0,3.933,2.372,4.807,5.305,4.807h10.702
		c4.119,0,5.305-0.874,5.305-3.932V15.26h2.871v1.527c0,4.09-1.312,6.305-7.645,6.305h-11.545c-6.116,0-8.051-2.745-8.051-8.458
		V8.455z"/>
	<path d="M251.635,8.455c0-5.709,1.935-8.455,8.051-8.455h13.01c6.117,0,8.052,2.746,8.052,8.455v6.179
		c0,5.713-1.935,8.458-8.052,8.458h-13.01c-6.116,0-8.051-2.745-8.051-8.458V8.455z M277.688,7.301c0-3.932-2.37-4.805-5.304-4.805
		h-12.388c-2.933,0-5.305,0.873-5.305,4.805v8.488c0,3.933,2.372,4.807,5.305,4.807h12.388c2.934,0,5.304-0.874,5.304-4.807V7.301z"
		/>
	<path d="M288.916,0.25h4.556l20.687,19.845V0.25h3.059v22.592h-4.555L291.975,2.994v19.848h-3.059V0.25z"/>
	<path d="M325.793,0.25h4.555l20.687,19.845V0.25h3.059v22.592h-4.555L328.85,2.994v19.848h-3.057V0.25z"/>
	<path d="M362.855,0.25h22.185v2.496h-19.128v7.207h18.379v2.496h-18.379v7.897h19.253v2.495h-22.31V0.25z"/>
	<path d="M392.177,8.455c0-5.709,1.933-8.455,8.049-8.455h11.702c5.553,0,7.081,2.59,7.081,5.615v1.936h-2.683V6.521
		c0-3.838-2.371-4.025-5.18-4.025h-10.609c-2.933,0-5.304,0.873-5.304,4.805v8.488c0,3.933,2.371,4.807,5.304,4.807h10.704
		c4.118,0,5.304-0.874,5.304-3.932V15.26h2.87v1.527c0,4.09-1.31,6.305-7.644,6.305h-11.546c-6.116,0-8.049-2.745-8.049-8.458V8.455
		z"/>
	<path d="M436.261,2.746h-11.419V0.25h25.898v2.496h-11.421v20.096h-3.059V2.746z"/>
	<path d="M457.313,0.25h3.057v22.592h-3.057V0.25z"/>
	<path d="M468.823,8.455c0-5.709,1.935-8.455,8.05-8.455h13.012c6.116,0,8.05,2.746,8.05,8.455v6.179
		c0,5.713-1.934,8.458-8.05,8.458h-13.012c-6.115,0-8.05-2.745-8.05-8.458V8.455z M494.878,7.301c0-3.932-2.373-4.805-5.306-4.805
		h-12.388c-2.932,0-5.304,0.873-5.304,4.805v8.488c0,3.933,2.372,4.807,5.304,4.807h12.388c2.933,0,5.306-0.874,5.306-4.807V7.301z"
		/>
	<path d="M506.104,0.25h4.555l20.688,19.845V0.25h3.058v22.592h-4.556L509.161,2.994v19.848h-3.057V0.25z"/>
</g>
</svg>
