<?xml version="1.0" encoding="utf-8"?>
<!-- Generator: Adobe Illustrator 15.0.2, SVG Export Plug-In . SVG Version: 6.00 Build 0)  -->
<!DOCTYPE svg PUBLIC "-//W3C//DTD SVG 1.1//EN" "http://www.w3.org/Graphics/SVG/1.1/DTD/svg11.dtd">
<svg version="1.1" id="Layer_1" xmlns="http://www.w3.org/2000/svg" xmlns:xlink="http://www.w3.org/1999/xlink" x="0px" y="0px"
	 width="15px" height="15px" viewBox="0 0 15 15" enable-background="new 0 0 15 15" xml:space="preserve">
<path fill="#999999" d="M14.401,13.294l-2.697-2.696c0.83-1.064,1.323-2.401,1.323-3.85c0-3.459-2.812-6.272-6.27-6.272
	S0.485,3.289,0.485,6.748c0,3.457,2.813,6.27,6.272,6.27c1.58,0,3.025-0.587,4.129-1.556l2.673,2.675L14.401,13.294z M1.511,6.748
	c0-2.893,2.354-5.246,5.246-5.246s5.245,2.353,5.245,5.246c0,2.891-2.353,5.245-5.245,5.245S1.511,9.639,1.511,6.748z"/>
</svg>
