<?xml version="1.0" encoding="utf-8"?>
<!-- Generator: Adobe Illustrator 15.0.2, SVG Export Plug-In . SVG Version: 6.00 Build 0)  -->
<!DOCTYPE svg PUBLIC "-//W3C//DTD SVG 1.1//EN" "http://www.w3.org/Graphics/SVG/1.1/DTD/svg11.dtd">
<svg version="1.1" id="Layer_1" xmlns="http://www.w3.org/2000/svg" xmlns:xlink="http://www.w3.org/1999/xlink" x="0px" y="0px"
	 width="130.686px" height="41.767px" viewBox="0 0 130.686 41.767" enable-background="new 0 0 130.686 41.767"
	 xml:space="preserve">
<g>
	<g>
		<path fill="#CDDE61" d="M103.351,3.726c-23.969-1.48-49.055-1.273-72.616,3.642C20.721,9.457,5.307,13.241,0.85,23.86
			c-4.744,11.301,11.58,14.56,19.266,15.847c14.715,2.465,29.972,2.249,44.835,1.722c8.679-0.309,17.259-0.909,25.858-2.158
			c7.589-1.103,15.15-2.538,22.554-4.553c5.422-1.476,11.624-3.336,15.778-7.326c9.608-9.229-28.552-18.855-33.168-20.071
			C80.206,3.17,62.415-0.776,45.976,0.131c-1.335,0.074-6.543,3.013-3.242,3.22c19.125,1.198,38.25,2.396,57.375,3.594
			C101.648,7.042,106.52,3.924,103.351,3.726c-19.125-1.198-38.25-2.396-57.375-3.594c-1.081,1.073-2.162,2.146-3.242,3.22
			c7.603-0.419,15.371,0.76,22.87,1.853c11.044,1.609,21.998,3.958,32.707,7.1c5.345,1.568,10.597,3.44,15.705,5.661
			c3.429,1.491,8.071,3.162,10.531,6.149c3.493,4.243-6.635,6.67-8.934,7.366c-22.668,6.862-47.735,7.574-71.237,6.834
			c-7.526-0.236-15.07-0.804-22.478-2.192c-5.04-0.944-11.708-2.299-15.101-6.561c-3.023-3.798-0.166-8.713,2.847-11.469
			c4.545-4.158,11.533-5.885,17.352-7.245c23.508-5.497,49.099-5.385,73.113-3.902C101.648,7.041,106.52,3.921,103.351,3.726z"/>
	</g>
</g>
</svg>
