<?xml version="1.0" encoding="utf-8"?>
<!-- Generator: Adobe Illustrator 15.0.2, SVG Export Plug-In . SVG Version: 6.00 Build 0)  -->
<!DOCTYPE svg PUBLIC "-//W3C//DTD SVG 1.1//EN" "http://www.w3.org/Graphics/SVG/1.1/DTD/svg11.dtd">
<svg version="1.1" id="Layer_1" xmlns="http://www.w3.org/2000/svg" xmlns:xlink="http://www.w3.org/1999/xlink" x="0px" y="0px"
	 width="108.813px" height="36.102px" viewBox="0 0 108.813 36.102" enable-background="new 0 0 108.813 36.102"
	 xml:space="preserve">
<g>
	<g>
		<path fill="#CDDE61" d="M85.98,3.15c-9.53-0.609-19.128-0.615-28.667-0.3c-14.817,0.49-30.78,1.542-44.531,7.561
			C5.486,13.604-6.594,23.994,4.463,30.617c5.379,3.223,12.393,3.967,18.488,4.615c7.619,0.811,15.311,0.935,22.966,0.846
			c7.637-0.088,15.344-0.331,22.939-1.199c11.617-1.328,25.322-2.928,35.556-8.998c2.652-1.573,6.203-4.706,3.338-7.777
			c-5.033-5.396-14.677-7.859-21.487-10.042C76.99,5.089,67.385,3.098,57.769,1.625c-6.234-0.955-12.768-1.9-19.095-1.551
			c-1.497,0.083-6.333,3.391-3.242,3.22c8.03-0.443,16.326,1.089,24.194,2.49c11.265,2.005,22.532,4.867,33.065,9.384
			c3.268,1.401,15.603,6.378,7.762,10.065c-6.717,3.158-14.596,4.296-21.858,5.474c-9.464,1.534-18.99,1.973-28.566,2.139
			c-7.902,0.138-15.835-0.014-23.698-0.851c-6.061-0.645-13.124-1.49-18.206-5.154c-6.073-4.378-0.265-11.111,4.34-13.612
			c8.272-4.493,18.873-5.461,28.074-6.328C54.5,5.586,68.74,5.475,82.738,6.37C84.279,6.468,89.149,3.353,85.98,3.15L85.98,3.15z"/>
	</g>
</g>
</svg>
