<?xml version="1.0" encoding="utf-8"?>
<!-- Generator: Adobe Illustrator 15.0.2, SVG Export Plug-In . SVG Version: 6.00 Build 0)  -->
<!DOCTYPE svg PUBLIC "-//W3C//DTD SVG 1.1//EN" "http://www.w3.org/Graphics/SVG/1.1/DTD/svg11.dtd">
<svg version="1.1" xmlns="http://www.w3.org/2000/svg" xmlns:xlink="http://www.w3.org/1999/xlink" x="0px" y="0px"
	 width="595.281px" height="841.89px" viewBox="0 0 595.281 841.89" enable-background="new 0 0 595.281 841.89"
	 xml:space="preserve">
<g id="Layer_1" display="none">
	<circle display="inline" fill="#CB2027" cx="57.941" cy="98.967" r="36.576"/>
	<path display="inline" fill="#FFFFFF" d="M79.666,98.968c0,11.997-9.727,21.724-21.725,21.724l0,0
		c-12.003,0-21.725-9.727-21.725-21.724l0,0c0-11.999,9.721-21.726,21.725-21.726l0,0C69.939,77.243,79.666,86.969,79.666,98.968
		L79.666,98.968z"/>
	<path display="inline" fill="#CB2027" d="M58.864,83.889c-10.749,0-16.169,7.707-16.169,14.136c0,3.89,1.474,7.352,4.633,8.641
		c0.519,0.215,0.983,0.008,1.132-0.566c0.105-0.395,0.353-1.396,0.461-1.815c0.152-0.565,0.095-0.766-0.324-1.261
		c-0.912-1.073-1.495-2.464-1.495-4.437c0-5.717,4.28-10.836,11.138-10.836c6.077,0,9.417,3.714,9.417,8.669
		c0,6.525-2.887,12.031-7.173,12.031c-2.369,0-4.138-1.956-3.572-4.358c0.684-2.867,2-5.959,2-8.027
		c0-1.853-0.995-3.397-3.055-3.397c-2.417,0-4.359,2.503-4.359,5.855c0,2.138,0.72,3.58,0.72,3.58s-2.477,10.491-2.911,12.33
		c-0.865,3.658-0.128,8.144-0.069,8.597c0.037,0.269,0.385,0.333,0.54,0.131c0.222-0.292,3.103-3.851,4.085-7.405
		c0.275-1.007,1.59-6.218,1.59-6.218c0.787,1.499,3.085,2.817,5.526,2.817c7.274,0,12.207-6.629,12.207-15.503
		C73.186,90.139,67.502,83.889,58.864,83.889z"/>
	<g display="inline">
		<path fill="#44589A" d="M441.142,62.646c-20.061,0-36.322,16.263-36.322,36.322c0,20.059,16.262,36.321,36.322,36.321
			s36.32-16.262,36.32-36.321C477.462,78.909,461.203,62.646,441.142,62.646z M448.968,98.486h-5.117c0,8.18,0,18.253,0,18.253
			h-7.59c0,0,0-9.975,0-18.253h-3.605v-6.451h3.605v-4.173c0-2.985,1.42-7.655,7.656-7.655l5.619,0.021v6.262c0,0-3.418,0-4.078,0
			c-0.666,0-1.607,0.332-1.607,1.754v3.792h5.777L448.968,98.486z"/>
	</g>
	<g display="inline">
		<path fill="#ED3431" d="M242.794,94.817c0.891,0,1.636-0.351,2.22-1.013c0.907-1.037,1.312-2.739,1.074-4.548
			c-0.424-3.231-2.733-5.917-5.142-5.989h-0.096c-0.853,0-1.615,0.35-2.197,1.012c-0.895,1.024-1.274,2.646-1.041,4.45
			c0.425,3.227,2.782,6.017,5.144,6.088H242.794z"/>
		<path fill="#ED3431" d="M245.422,104.554c-0.233-0.159-0.48-0.327-0.737-0.503c-0.742-0.228-1.53-0.347-2.336-0.356l-0.103-0.001
			c-3.712,0-6.97,2.249-6.97,4.813c0,2.792,2.79,4.976,6.351,4.976c4.7,0,7.083-1.619,7.083-4.813c0-0.302-0.039-0.614-0.114-0.928
			C248.278,106.501,247.144,105.726,245.422,104.554z"/>
		<path fill="#ED3431" d="M249.542,62.77c-19.992,0-36.199,16.207-36.199,36.199c0,19.991,16.207,36.197,36.199,36.197
			s36.198-16.206,36.198-36.197C285.74,78.977,269.534,62.77,249.542,62.77z M246.11,116.337c-1.388,0.401-2.888,0.605-4.459,0.605
			c-1.751,0-3.439-0.202-5.006-0.6c-3.039-0.767-5.29-2.22-6.336-4.093c-0.451-0.81-0.684-1.673-0.684-2.569
			c0-0.922,0.22-1.855,0.656-2.778c1.667-3.552,6.056-5.938,10.918-5.938c0.049,0,0.098,0,0.139,0
			c-0.393-0.696-0.586-1.415-0.586-2.174c0-0.376,0.05-0.761,0.152-1.151c-5.101-0.117-8.917-3.852-8.917-8.778
			c0-3.476,2.776-6.863,6.754-8.233c1.19-0.409,2.399-0.62,3.595-0.62h10.904c0.375,0,0.703,0.241,0.82,0.594
			c0.113,0.354-0.012,0.741-0.312,0.958l-2.442,1.767c-0.146,0.105-0.32,0.161-0.503,0.161h-0.873
			c1.127,1.353,1.789,3.277,1.789,5.443c0,2.389-1.208,4.65-3.407,6.372c-1.701,1.324-1.766,1.685-1.766,2.443
			c0.02,0.417,1.204,1.771,2.509,2.692c3.042,2.153,4.177,4.264,4.177,7.788C253.229,111.9,250.433,115.082,246.11,116.337z
			 M270.743,97.627c0,0.475-0.385,0.858-0.854,0.858h-6.204v6.201c0,0.474-0.382,0.858-0.855,0.858h-1.765
			c-0.473,0-0.858-0.385-0.858-0.858v-6.201h-6.201c-0.471,0-0.856-0.383-0.856-0.858v-1.765c0-0.473,0.385-0.857,0.856-0.857h6.201
			v-6.199c0-0.474,0.386-0.859,0.858-0.859h1.765c0.473,0,0.855,0.385,0.855,0.859v6.199h6.204c0.469,0,0.854,0.384,0.854,0.857
			V97.627z"/>
	</g>
	<g display="inline">
		<polygon fill="#F42439" points="326.99,101.787 329.941,101.792 329.917,116.458 332.769,116.463 332.792,101.796 
			335.744,101.801 335.748,99.304 326.994,99.29 		"/>
		<path fill="#F42439" d="M350.794,103.677c-0.395-0.001-0.783,0.098-1.17,0.301c-0.377,0.198-0.744,0.493-1.086,0.876l0.01-5.528
			l-2.561-0.004l-0.027,17.164l2.559,0.004l0.002-0.97c0.332,0.392,0.693,0.677,1.084,0.86c0.385,0.186,0.828,0.275,1.32,0.276
			c0.748,0.001,1.328-0.235,1.723-0.711c0.398-0.481,0.6-1.166,0.6-2.062l0.012-7.026c0.002-1.038-0.207-1.829-0.629-2.369
			C352.205,103.948,351.591,103.678,350.794,103.677z M350.638,113.533c0,0.401-0.072,0.689-0.223,0.87
			c-0.143,0.181-0.367,0.271-0.682,0.27c-0.215,0-0.418-0.05-0.609-0.136c-0.191-0.092-0.398-0.249-0.602-0.452l0.014-7.89
			c0.174-0.175,0.348-0.306,0.523-0.386c0.176-0.084,0.355-0.122,0.537-0.122c0.34,0.001,0.602,0.111,0.789,0.329
			c0.176,0.221,0.264,0.544,0.264,0.976L350.638,113.533z"/>
		<path fill="#F42439" d="M344.531,89.631c0.387,0.001,0.689-0.104,0.918-0.317c0.229-0.212,0.346-0.509,0.346-0.882l0.014-7.599
			c0-0.305-0.115-0.549-0.35-0.742c-0.232-0.188-0.533-0.278-0.912-0.279c-0.352,0-0.631,0.089-0.852,0.276
			c-0.215,0.193-0.322,0.437-0.324,0.74l-0.012,7.6c0,0.384,0.1,0.675,0.301,0.886C343.863,89.531,344.15,89.631,344.531,89.631z"/>
		<path fill="#F42439" d="M341.531,113.433c-0.238,0.275-0.496,0.501-0.785,0.682c-0.283,0.177-0.521,0.263-0.707,0.263
			c-0.236,0-0.41-0.063-0.52-0.203c-0.102-0.131-0.156-0.347-0.154-0.649l0.016-9.714l-2.527-0.004l-0.02,10.588
			c0,0.757,0.148,1.319,0.439,1.698c0.301,0.378,0.732,0.566,1.318,0.567c0.477,0,0.967-0.129,1.475-0.402
			c0.508-0.264,0.99-0.655,1.463-1.166l-0.002,1.386l2.533,0.005l0.021-12.664l-2.535-0.004L341.531,113.433z"/>
		<path fill="#F42439" d="M345.404,62.654c-20.061-0.034-36.344,16.198-36.377,36.253c-0.035,20.056,16.193,36.342,36.254,36.375
			c20.051,0.034,36.342-16.197,36.375-36.253C381.691,78.974,365.455,62.687,345.404,62.654z M351.027,77.757l2.842,0.004
			l-0.02,10.698c0,0.328,0.068,0.564,0.189,0.712c0.113,0.15,0.311,0.227,0.578,0.228c0.209,0,0.473-0.101,0.793-0.295
			c0.318-0.196,0.613-0.444,0.879-0.747l0.02-10.591l2.852,0.005l-0.025,13.95l-2.85-0.005l0.002-1.545
			c-0.523,0.568-1.066,1.004-1.645,1.3c-0.564,0.292-1.115,0.443-1.65,0.442c-0.66-0.001-1.154-0.211-1.486-0.631
			c-0.332-0.412-0.498-1.033-0.498-1.866L351.027,77.757z M340.441,80.931c0.002-1.086,0.381-1.944,1.148-2.582
			c0.77-0.637,1.805-0.957,3.102-0.954c1.176,0.002,2.143,0.343,2.893,1.017c0.752,0.675,1.127,1.549,1.125,2.613l-0.012,7.204
			c-0.004,1.193-0.373,2.125-1.109,2.808c-0.742,0.677-1.756,1.015-3.053,1.013c-1.248-0.002-2.248-0.356-2.994-1.06
			c-0.74-0.704-1.113-1.643-1.111-2.83L340.441,80.931z M332.687,72.766l2.074,7.563h0.199l1.996-7.557l3.262,0.006l-3.75,11.06
			l-0.014,7.845l-3.211-0.006l0.012-7.491l-3.801-11.426L332.687,72.766z M369.945,112.626c-0.008,5.046-4.105,9.134-9.152,9.125
			l-31.756-0.054c-5.047-0.009-9.131-4.11-9.121-9.156l0.012-7.347c0.008-5.046,4.105-9.134,9.152-9.125l31.756,0.054
			c5.047,0.009,9.131,4.11,9.123,9.156L369.945,112.626z"/>
		<path fill="#F42439" d="M358.439,103.529c-1.139-0.002-2.055,0.343-2.771,1.029c-0.723,0.691-1.084,1.592-1.086,2.687l-0.01,5.688
			c-0.002,1.222,0.326,2.183,0.979,2.872c0.643,0.698,1.537,1.047,2.672,1.048c1.262,0.003,2.209-0.32,2.846-0.973
			c0.637-0.659,0.957-1.638,0.959-2.935l0.002-0.649l-2.605-0.005l-0.002,0.577c0,0.745-0.09,1.224-0.252,1.443
			c-0.172,0.219-0.463,0.327-0.883,0.327c-0.404-0.001-0.688-0.127-0.855-0.387c-0.17-0.26-0.248-0.722-0.248-1.388l0.004-2.386
			l4.846,0.008l0.006-3.229c0.002-1.201-0.312-2.121-0.93-2.764C360.484,103.853,359.597,103.531,358.439,103.529z M359.429,108.511
			l-2.236-0.004l0.002-1.279c0-0.531,0.084-0.913,0.264-1.136c0.174-0.236,0.465-0.349,0.865-0.348
			c0.389,0.001,0.672,0.114,0.84,0.351c0.176,0.223,0.27,0.605,0.27,1.137L359.429,108.511z"/>
	</g>
	<circle display="inline" fill="#4BA9DF" cx="153.741" cy="98.968" r="36.347"/>
	<path display="inline" fill="#FFFFFF" d="M168.679,91.307c0.015,0.331,0.021,0.664,0.021,0.997
		c0,10.185-7.752,21.928-21.928,21.928c-4.351,0-8.4-1.275-11.813-3.464c0.604,0.073,1.218,0.108,1.839,0.108
		c3.611,0,6.934-1.231,9.571-3.299c-3.373-0.062-6.218-2.291-7.199-5.353c0.47,0.092,0.954,0.14,1.449,0.14
		c0.704,0,1.385-0.095,2.033-0.271c-3.527-0.709-6.184-3.824-6.184-7.558c0-0.034,0-0.065,0-0.097
		c1.039,0.577,2.228,0.925,3.491,0.964c-2.067-1.383-3.429-3.742-3.429-6.414c0-1.413,0.381-2.736,1.043-3.876
		c3.802,4.665,9.48,7.732,15.885,8.052c-0.131-0.562-0.199-1.15-0.199-1.755c0-4.256,3.451-7.707,7.706-7.707
		c2.218,0,4.22,0.937,5.626,2.436c1.755-0.347,3.403-0.986,4.893-1.871c-0.574,1.801-1.795,3.311-3.387,4.263
		c1.559-0.188,3.044-0.6,4.426-1.214C171.492,88.862,170.183,90.221,168.679,91.307z"/>
	<g display="inline">
		<ellipse fill="#005596" cx="536.986" cy="99.011" rx="7.24" ry="7.225"/>
		<path fill="#005596" d="M545.324,91.611h5.092c0.582,0,1.053-0.471,1.053-1.051v-5.08c0-0.58-0.471-1.051-1.053-1.051h-5.092
			c-0.582,0-1.053,0.471-1.053,1.051v5.08C544.271,91.14,544.742,91.611,545.324,91.611z"/>
		<path fill="#005596" d="M536.941,62.392c-20.201,0-36.576,16.375-36.576,36.575c0,20.201,16.375,36.576,36.576,36.576
			c20.199,0,36.576-16.375,36.576-36.576C573.517,78.767,557.142,62.392,536.941,62.392z M555.771,113.331
			c0,2.467-2.004,4.467-4.477,4.467h-28.705c-2.473,0-4.477-2-4.477-4.467V84.605c0-2.467,2.004-4.467,4.477-4.467h28.705
			c2.473,0,4.477,2,4.477,4.467V113.331L555.771,113.331z"/>
		<path fill="#005596" d="M548.441,99.011c0,6.302-5.141,11.429-11.455,11.429c-6.316,0-11.457-5.127-11.457-11.429
			c0-1.046,0.143-2.059,0.408-3.021h-3.523v16.377c0,0.58,0.471,1.051,1.053,1.051h27.037c0.582,0,1.055-0.471,1.055-1.051V95.99
			h-3.523C548.298,96.953,548.441,97.965,548.441,99.011z"/>
	</g>
	<g display="inline">
		<path fill="#42B1B4" d="M57.941,158.512c-20.2,0-36.576,16.375-36.576,36.575c0,20.201,16.376,36.576,36.576,36.576
			c20.2,0,36.576-16.375,36.576-36.576C94.518,174.887,78.142,158.512,57.941,158.512z M83.447,206.529
			c0,1.938-1.677,3.508-3.746,3.508H61.693l-11.782,9.413l4.108-9.413H36.182c-2.069,0-3.746-1.571-3.746-3.508v-24.293
			c0-1.938,1.677-3.51,3.746-3.51h43.52c2.069,0,3.746,1.571,3.746,3.51v24.293H83.447z"/>
		<g>
			<path fill="#42B1B4" d="M38.104,189.02h5.059c2.551,0,3.204,1.595,3.204,2.667c0,1.493-0.841,1.914-1.275,2.131
				c1.275,0.479,1.609,1.493,1.609,2.522c0,0.826-0.348,1.609-0.899,2.145c-0.594,0.58-1.16,0.942-3.291,0.942h-4.407V189.02z
				 M40.191,193.094h2.551c0.855,0,1.537-0.333,1.537-1.16c0-0.855-0.609-1.116-1.595-1.116h-2.493V193.094L40.191,193.094z
				 M40.191,197.631h2.667c1.058,0,1.667-0.464,1.667-1.522c0-0.914-0.783-1.261-1.565-1.261h-2.769V197.631z"/>
			<path fill="#42B1B4" d="M50.744,197.544h5.175v1.884h-7.35V189.02h2.174L50.744,197.544L50.744,197.544z"/>
			<path fill="#42B1B4" d="M61.964,188.745c1.377,0,5.001,0.595,5.001,5.479c0,4.885-3.624,5.479-5.001,5.479
				s-5.001-0.594-5.001-5.479C56.963,189.339,60.587,188.745,61.964,188.745z M61.964,197.863c1.174,0,2.827-0.725,2.827-3.639
				s-1.653-3.638-2.827-3.638c-1.174,0-2.827,0.725-2.827,3.638C59.137,197.137,60.79,197.863,61.964,197.863z"/>
			<path fill="#42B1B4" d="M73.59,193.818h4.349v5.61h-1.45l-0.217-1.305c-0.551,0.638-1.348,1.58-3.247,1.58
				c-2.508,0-4.784-1.797-4.784-5.45c0-2.841,1.58-5.523,5.088-5.509c3.189,0,4.45,2.073,4.566,3.508h-2.174
				c0-0.406-0.739-1.71-2.276-1.71c-1.551,0-2.986,1.072-2.986,3.74c0,2.841,1.551,3.581,3.03,3.581
				c0.479,0,2.073-0.188,2.522-2.291H73.59V193.818z"/>
		</g>
	</g>
	<g display="inline">
		<path fill="#333333" d="M153.741,195.825c0.155,0,0.453-0.038,0.708-0.292l22.833-22.833H130.2l22.833,22.833
			C153.289,195.787,153.586,195.825,153.741,195.825z"/>
		<g>
			<path fill="#333333" d="M141.645,192.627l-16.783-16.783c-0.434-0.434-0.791-0.915-1.087-1.422
				c-0.636,0.788-1.033,1.777-1.033,2.869v34.239L141.645,192.627z"/>
			<path fill="#333333" d="M184.741,211.531v-34.239c0-1.092-0.396-2.081-1.033-2.869c-0.296,0.507-0.653,0.988-1.087,1.422
				l-16.783,16.783L184.741,211.531z"/>
			<path fill="#333333" d="M127.334,217.477h52.814c0.607,0,1.185-0.124,1.716-0.338l-20.269-20.269l-2.905,2.905
				c-1.322,1.322-3.08,2.05-4.95,2.05c-1.87,0-3.628-0.728-4.95-2.05l-2.905-2.905l-20.269,20.269
				C126.149,217.353,126.727,217.477,127.334,217.477z"/>
		</g>
	</g>
	<circle display="inline" fill="#5D5D5D" cx="57.941" cy="306.967" r="36.576"/>
	<path display="inline" fill="#FFFFFF" d="M79.666,306.968c0,11.997-9.727,21.724-21.725,21.724l0,0
		c-12.003,0-21.725-9.727-21.725-21.724l0,0c0-11.999,9.721-21.726,21.725-21.726l0,0C69.939,285.243,79.666,294.969,79.666,306.968
		L79.666,306.968z"/>
	<path display="inline" fill="#5D5D5D" d="M58.864,291.889c-10.749,0-16.169,7.707-16.169,14.136c0,3.89,1.474,7.352,4.633,8.641
		c0.519,0.215,0.983,0.008,1.132-0.566c0.105-0.395,0.353-1.396,0.461-1.815c0.152-0.565,0.095-0.766-0.324-1.261
		c-0.912-1.073-1.495-2.464-1.495-4.437c0-5.717,4.28-10.836,11.138-10.836c6.077,0,9.417,3.714,9.417,8.669
		c0,6.525-2.887,12.031-7.173,12.031c-2.369,0-4.138-1.956-3.572-4.358c0.684-2.867,2-5.959,2-8.027
		c0-1.853-0.995-3.397-3.055-3.397c-2.417,0-4.359,2.503-4.359,5.855c0,2.138,0.72,3.58,0.72,3.58s-2.477,10.491-2.911,12.33
		c-0.865,3.658-0.128,8.144-0.069,8.597c0.037,0.269,0.385,0.333,0.54,0.131c0.222-0.292,3.103-3.851,4.085-7.405
		c0.275-1.007,1.59-6.218,1.59-6.218c0.787,1.499,3.085,2.817,5.526,2.817c7.274,0,12.207-6.629,12.207-15.503
		C73.186,298.139,67.502,291.889,58.864,291.889z"/>
	<g display="inline">
		<path fill="#5D5D5D" d="M441.142,270.646c-20.061,0-36.322,16.263-36.322,36.322c0,20.059,16.262,36.321,36.322,36.321
			s36.32-16.262,36.32-36.321C477.462,286.909,461.203,270.646,441.142,270.646z M448.968,306.486h-5.117c0,8.18,0,18.253,0,18.253
			h-7.59c0,0,0-9.975,0-18.253h-3.605v-6.451h3.605v-4.173c0-2.985,1.42-7.655,7.656-7.655l5.619,0.021v6.262c0,0-3.418,0-4.078,0
			c-0.666,0-1.607,0.332-1.607,1.754v3.792h5.777L448.968,306.486z"/>
	</g>
	<path display="inline" fill="#5D5D5D" d="M242.794,302.817c0.891,0,1.636-0.351,2.22-1.013c0.907-1.037,1.312-2.739,1.074-4.548
		c-0.424-3.231-2.733-5.917-5.142-5.989h-0.096c-0.853,0-1.615,0.35-2.197,1.012c-0.895,1.024-1.274,2.646-1.041,4.45
		c0.425,3.227,2.782,6.017,5.144,6.088H242.794z"/>
	<path display="inline" fill="#5D5D5D" d="M245.422,312.554c-0.233-0.159-0.48-0.327-0.737-0.503
		c-0.742-0.228-1.53-0.347-2.336-0.356l-0.103-0.001c-3.712,0-6.97,2.249-6.97,4.813c0,2.792,2.79,4.976,6.351,4.976
		c4.7,0,7.083-1.619,7.083-4.813c0-0.302-0.039-0.614-0.114-0.928C248.278,314.501,247.144,313.726,245.422,312.554z"/>
	<path display="inline" fill="#5D5D5D" d="M249.542,270.77c-19.992,0-36.199,16.207-36.199,36.199
		c0,19.991,16.207,36.197,36.199,36.197s36.198-16.206,36.198-36.197C285.74,286.977,269.534,270.77,249.542,270.77z
		 M246.11,324.337c-1.388,0.401-2.888,0.605-4.459,0.605c-1.751,0-3.439-0.202-5.006-0.6c-3.039-0.767-5.29-2.22-6.336-4.093
		c-0.451-0.81-0.684-1.673-0.684-2.569c0-0.922,0.22-1.855,0.656-2.778c1.667-3.552,6.056-5.938,10.918-5.938
		c0.049,0,0.098,0,0.139,0c-0.393-0.696-0.586-1.415-0.586-2.174c0-0.376,0.05-0.761,0.152-1.151
		c-5.101-0.117-8.917-3.852-8.917-8.778c0-3.476,2.776-6.863,6.754-8.233c1.19-0.409,2.399-0.62,3.595-0.62h10.904
		c0.375,0,0.703,0.241,0.82,0.594c0.113,0.354-0.012,0.741-0.312,0.958l-2.442,1.767c-0.146,0.105-0.32,0.161-0.503,0.161h-0.873
		c1.127,1.353,1.789,3.277,1.789,5.443c0,2.389-1.208,4.65-3.407,6.372c-1.701,1.324-1.766,1.685-1.766,2.443
		c0.02,0.417,1.204,1.771,2.509,2.692c3.042,2.153,4.177,4.264,4.177,7.788C253.229,319.9,250.433,323.082,246.11,324.337z
		 M270.743,305.627c0,0.475-0.385,0.858-0.854,0.858h-6.204v6.201c0,0.474-0.382,0.858-0.855,0.858h-1.765
		c-0.473,0-0.858-0.385-0.858-0.858v-6.201h-6.201c-0.471,0-0.856-0.383-0.856-0.858v-1.765c0-0.473,0.385-0.857,0.856-0.857h6.201
		v-6.199c0-0.474,0.386-0.859,0.858-0.859h1.765c0.473,0,0.855,0.385,0.855,0.859v6.199h6.204c0.469,0,0.854,0.384,0.854,0.857
		V305.627z"/>
	<g display="inline">
		<polygon fill="#5D5D5D" points="326.99,309.787 329.941,309.792 329.917,324.458 332.769,324.463 332.792,309.796 
			335.744,309.801 335.748,307.304 326.994,307.29 		"/>
		<path fill="#5D5D5D" d="M350.794,311.677c-0.395-0.001-0.783,0.098-1.17,0.301c-0.377,0.198-0.744,0.493-1.086,0.876l0.01-5.528
			l-2.561-0.004l-0.027,17.164l2.559,0.004l0.002-0.97c0.332,0.392,0.693,0.677,1.084,0.86c0.385,0.186,0.828,0.275,1.32,0.276
			c0.748,0.001,1.328-0.235,1.723-0.711c0.398-0.481,0.6-1.166,0.6-2.062l0.012-7.026c0.002-1.038-0.207-1.829-0.629-2.369
			C352.205,311.948,351.591,311.678,350.794,311.677z M350.638,321.533c0,0.401-0.072,0.689-0.223,0.87
			c-0.143,0.181-0.367,0.271-0.682,0.27c-0.215,0-0.418-0.05-0.609-0.136c-0.191-0.092-0.398-0.249-0.602-0.452l0.014-7.89
			c0.174-0.175,0.348-0.306,0.523-0.386c0.176-0.084,0.355-0.122,0.537-0.122c0.34,0.001,0.602,0.111,0.789,0.329
			c0.176,0.221,0.264,0.544,0.264,0.976L350.638,321.533z"/>
		<path fill="#5D5D5D" d="M344.531,297.631c0.387,0.001,0.689-0.104,0.918-0.317c0.229-0.212,0.346-0.509,0.346-0.882l0.014-7.599
			c0-0.305-0.115-0.549-0.35-0.742c-0.232-0.188-0.533-0.278-0.912-0.279c-0.352,0-0.631,0.089-0.852,0.276
			c-0.215,0.193-0.322,0.437-0.324,0.74l-0.012,7.6c0,0.384,0.1,0.675,0.301,0.886C343.863,297.531,344.15,297.631,344.531,297.631z
			"/>
		<path fill="#5D5D5D" d="M341.531,321.433c-0.238,0.275-0.496,0.501-0.785,0.682c-0.283,0.177-0.521,0.263-0.707,0.263
			c-0.236,0-0.41-0.063-0.52-0.203c-0.102-0.131-0.156-0.347-0.154-0.649l0.016-9.714l-2.527-0.004l-0.02,10.588
			c0,0.757,0.148,1.319,0.439,1.698c0.301,0.378,0.732,0.566,1.318,0.567c0.477,0,0.967-0.129,1.475-0.402
			c0.508-0.264,0.99-0.655,1.463-1.166l-0.002,1.386l2.533,0.005l0.021-12.664l-2.535-0.004L341.531,321.433z"/>
		<path fill="#5D5D5D" d="M345.404,270.654c-20.061-0.034-36.344,16.198-36.377,36.253c-0.035,20.056,16.193,36.342,36.254,36.375
			c20.051,0.034,36.342-16.197,36.375-36.253C381.691,286.974,365.455,270.687,345.404,270.654z M351.027,285.757l2.842,0.004
			l-0.02,10.698c0,0.328,0.068,0.564,0.189,0.712c0.113,0.15,0.311,0.227,0.578,0.228c0.209,0,0.473-0.101,0.793-0.295
			c0.318-0.196,0.613-0.444,0.879-0.747l0.02-10.591l2.852,0.005l-0.025,13.95l-2.85-0.005l0.002-1.545
			c-0.523,0.568-1.066,1.004-1.645,1.3c-0.564,0.292-1.115,0.443-1.65,0.442c-0.66-0.001-1.154-0.211-1.486-0.631
			c-0.332-0.412-0.498-1.033-0.498-1.866L351.027,285.757z M340.441,288.931c0.002-1.086,0.381-1.944,1.148-2.582
			c0.77-0.637,1.805-0.957,3.102-0.954c1.176,0.002,2.143,0.343,2.893,1.017c0.752,0.675,1.127,1.549,1.125,2.613l-0.012,7.204
			c-0.004,1.193-0.373,2.125-1.109,2.808c-0.742,0.677-1.756,1.015-3.053,1.013c-1.248-0.002-2.248-0.356-2.994-1.06
			c-0.74-0.704-1.113-1.643-1.111-2.83L340.441,288.931z M332.687,280.766l2.074,7.563h0.199l1.996-7.557l3.262,0.006l-3.75,11.06
			l-0.014,7.845l-3.211-0.006l0.012-7.491l-3.801-11.426L332.687,280.766z M369.945,320.626c-0.008,5.046-4.105,9.134-9.152,9.125
			l-31.756-0.054c-5.047-0.009-9.131-4.11-9.121-9.156l0.012-7.347c0.008-5.046,4.105-9.134,9.152-9.125l31.756,0.054
			c5.047,0.009,9.131,4.11,9.123,9.156L369.945,320.626z"/>
		<path fill="#5D5D5D" d="M358.439,311.529c-1.139-0.002-2.055,0.343-2.771,1.029c-0.723,0.691-1.084,1.592-1.086,2.687l-0.01,5.688
			c-0.002,1.222,0.326,2.183,0.979,2.872c0.643,0.698,1.537,1.047,2.672,1.048c1.262,0.003,2.209-0.32,2.846-0.973
			c0.637-0.659,0.957-1.638,0.959-2.935l0.002-0.649l-2.605-0.005l-0.002,0.577c0,0.745-0.09,1.224-0.252,1.443
			c-0.172,0.219-0.463,0.327-0.883,0.327c-0.404-0.001-0.688-0.127-0.855-0.387c-0.17-0.26-0.248-0.722-0.248-1.388l0.004-2.386
			l4.846,0.008l0.006-3.229c0.002-1.201-0.312-2.121-0.93-2.764C360.484,311.853,359.597,311.531,358.439,311.529z M359.429,316.511
			l-2.236-0.004l0.002-1.279c0-0.531,0.084-0.913,0.264-1.136c0.174-0.236,0.465-0.349,0.865-0.348
			c0.389,0.001,0.672,0.114,0.84,0.351c0.176,0.223,0.27,0.605,0.27,1.137L359.429,316.511z"/>
	</g>
	<path display="inline" fill="#5D5D5D" d="M190.088,306.967c0,20.074-16.273,36.347-36.347,36.347
		c-20.074,0-36.347-16.272-36.347-36.347c0-20.075,16.272-36.347,36.347-36.347C173.814,270.621,190.088,286.893,190.088,306.967z
		 M172.523,295.317c-1.382,0.614-2.867,1.027-4.426,1.214c1.592-0.952,2.812-2.462,3.387-4.263
		c-1.489,0.885-3.138,1.524-4.893,1.871c-1.406-1.499-3.408-2.436-5.626-2.436c-4.255,0-7.706,3.451-7.706,7.707
		c0,0.604,0.068,1.192,0.199,1.755c-6.404-0.319-12.083-3.387-15.885-8.052c-0.662,1.14-1.043,2.463-1.043,3.876
		c0,2.672,1.361,5.031,3.429,6.414c-1.264-0.039-2.452-0.387-3.491-0.964c0,0.031,0,0.062,0,0.097c0,3.733,2.656,6.849,6.184,7.558
		c-0.648,0.176-1.329,0.271-2.033,0.271c-0.495,0-0.979-0.048-1.449-0.14c0.981,3.062,3.826,5.29,7.199,5.353
		c-2.638,2.067-5.96,3.299-9.571,3.299c-0.621,0-1.234-0.035-1.839-0.108c3.413,2.188,7.463,3.464,11.813,3.464
		c14.176,0,21.928-11.743,21.928-21.928c0-0.333-0.007-0.666-0.021-0.997C170.183,298.221,171.492,296.863,172.523,295.317z"/>
	<g display="inline">
		<path fill="#5D5D5D" d="M545.324,299.611h5.092c0.582,0,1.053-0.471,1.053-1.051v-5.08c0-0.58-0.471-1.051-1.053-1.051h-5.092
			c-0.582,0-1.053,0.471-1.053,1.051v5.08C544.271,299.14,544.742,299.611,545.324,299.611z"/>
		<path fill="#5D5D5D" d="M536.941,270.392c-20.201,0-36.576,16.375-36.576,36.575c0,20.201,16.375,36.576,36.576,36.576
			c20.199,0,36.576-16.375,36.576-36.576C573.517,286.767,557.142,270.392,536.941,270.392z M555.771,321.331
			c0,2.467-2.004,4.467-4.477,4.467h-28.705c-2.473,0-4.477-2-4.477-4.467v-28.726c0-2.467,2.004-4.467,4.477-4.467h28.705
			c2.473,0,4.477,2,4.477,4.467V321.331L555.771,321.331z"/>
		<ellipse fill="#5D5D5D" cx="536.986" cy="307.011" rx="7.24" ry="7.225"/>
		<path fill="#5D5D5D" d="M548.441,307.011c0,6.302-5.141,11.429-11.455,11.429c-6.316,0-11.457-5.127-11.457-11.429
			c0-1.046,0.143-2.059,0.408-3.021h-3.523v16.377c0,0.58,0.471,1.051,1.053,1.051h27.037c0.582,0,1.055-0.471,1.055-1.051V303.99
			h-3.523C548.298,304.953,548.441,305.965,548.441,307.011z"/>
	</g>
	<path display="inline" fill="#5D5D5D" d="M57.941,366.512c-20.2,0-36.576,16.375-36.576,36.575
		c0,20.202,16.376,36.577,36.576,36.577c20.2,0,36.576-16.375,36.576-36.577C94.518,382.887,78.142,366.512,57.941,366.512z
		 M83.447,414.529c0,1.938-1.677,3.508-3.746,3.508H61.693l-11.782,9.414l4.108-9.414H36.182c-2.069,0-3.746-1.571-3.746-3.508
		v-24.293c0-1.938,1.677-3.51,3.746-3.51h43.52c2.069,0,3.746,1.571,3.746,3.51v24.293H83.447z"/>
	<g display="inline">
		<path fill="#5D5D5D" d="M38.104,397.02h5.059c2.551,0,3.204,1.595,3.204,2.667c0,1.493-0.841,1.914-1.275,2.131
			c1.275,0.479,1.609,1.493,1.609,2.522c0,0.826-0.348,1.609-0.899,2.145c-0.594,0.58-1.16,0.942-3.291,0.942h-4.407V397.02z
			 M40.191,401.094h2.551c0.855,0,1.537-0.333,1.537-1.16c0-0.855-0.609-1.116-1.595-1.116h-2.493V401.094L40.191,401.094z
			 M40.191,405.631h2.667c1.058,0,1.667-0.464,1.667-1.522c0-0.914-0.783-1.261-1.565-1.261h-2.769V405.631z"/>
		<path fill="#5D5D5D" d="M50.744,405.544h5.175v1.884h-7.35V397.02h2.174L50.744,405.544L50.744,405.544z"/>
		<path fill="#5D5D5D" d="M61.964,396.745c1.377,0,5.001,0.595,5.001,5.479c0,4.885-3.624,5.479-5.001,5.479
			s-5.001-0.594-5.001-5.479C56.963,397.339,60.587,396.745,61.964,396.745z M61.964,405.863c1.174,0,2.827-0.725,2.827-3.639
			s-1.653-3.638-2.827-3.638c-1.174,0-2.827,0.725-2.827,3.638S60.79,405.863,61.964,405.863z"/>
		<path fill="#5D5D5D" d="M73.59,401.818h4.349v5.61h-1.45l-0.217-1.305c-0.551,0.638-1.348,1.58-3.247,1.58
			c-2.508,0-4.784-1.797-4.784-5.45c0-2.841,1.58-5.523,5.088-5.509c3.189,0,4.45,2.073,4.566,3.508h-2.174
			c0-0.406-0.739-1.71-2.276-1.71c-1.551,0-2.986,1.072-2.986,3.74c0,2.841,1.551,3.581,3.03,3.581c0.479,0,2.073-0.188,2.522-2.291
			H73.59V401.818z"/>
	</g>
	<g display="inline">
		<path fill="#5D5D5D" d="M153.741,403.825c0.155,0,0.453-0.038,0.708-0.292l22.833-22.833H130.2l22.833,22.833
			C153.289,403.787,153.586,403.825,153.741,403.825z"/>
		<g>
			<path fill="#5D5D5D" d="M141.645,400.627l-16.783-16.783c-0.434-0.434-0.791-0.915-1.087-1.422
				c-0.636,0.788-1.033,1.777-1.033,2.869v34.239L141.645,400.627z"/>
			<path fill="#5D5D5D" d="M184.741,419.531v-34.239c0-1.092-0.396-2.081-1.033-2.869c-0.296,0.507-0.653,0.988-1.087,1.422
				l-16.783,16.783L184.741,419.531z"/>
			<path fill="#5D5D5D" d="M127.334,425.476h52.814c0.607,0,1.185-0.123,1.716-0.338l-20.269-20.269l-2.905,2.905
				c-1.322,1.322-3.08,2.05-4.95,2.05c-1.87,0-3.628-0.728-4.95-2.05l-2.905-2.905l-20.269,20.269
				C126.149,425.353,126.727,425.476,127.334,425.476z"/>
		</g>
	</g>
</g>
<g id="Layer_2">
	<circle fill="#CB2027" cx="57.941" cy="98.967" r="36.576"/>
	<path fill="#FFFFFF" d="M79.666,98.968c0,11.996-9.727,21.724-21.725,21.724l0,0c-12.003,0-21.725-9.728-21.725-21.724l0,0
		c0-12,9.721-21.727,21.725-21.727l0,0C69.939,77.244,79.666,86.968,79.666,98.968L79.666,98.968z"/>
	<path fill="#CB2027" d="M58.864,83.889c-10.749,0-16.169,7.707-16.169,14.136c0,3.891,1.474,7.352,4.633,8.641
		c0.519,0.215,0.983,0.008,1.132-0.565c0.105-0.396,0.353-1.396,0.461-1.815c0.152-0.564,0.095-0.766-0.324-1.261
		c-0.912-1.073-1.495-2.464-1.495-4.437c0-5.717,4.28-10.836,11.138-10.836c6.077,0,9.417,3.713,9.417,8.668
		c0,6.525-2.887,12.031-7.173,12.031c-2.369,0-4.138-1.955-3.572-4.357c0.684-2.867,2-5.959,2-8.027
		c0-1.854-0.995-3.396-3.055-3.396c-2.417,0-4.359,2.502-4.359,5.854c0,2.138,0.72,3.58,0.72,3.58s-2.477,10.491-2.911,12.33
		c-0.865,3.657-0.128,8.144-0.069,8.597c0.037,0.27,0.385,0.334,0.54,0.131c0.222-0.291,3.103-3.851,4.085-7.404
		c0.275-1.008,1.59-6.219,1.59-6.219c0.787,1.5,3.085,2.817,5.526,2.817c7.274,0,12.207-6.629,12.207-15.503
		C73.186,90.139,67.502,83.889,58.864,83.889z"/>
	<circle fill="#5264A0" cx="441.142" cy="98.967" r="36.321"/>
	<path fill="#FFFFFF" d="M448.968,98.486h-5.117c0,8.18,0,18.254,0,18.254h-7.59c0,0,0-9.976,0-18.254h-3.605v-6.451h3.605v-4.173
		c0-2.985,1.42-7.655,7.656-7.655l5.619,0.021v6.262c0,0-3.418,0-4.078,0c-0.666,0-1.607,0.332-1.607,1.754v3.793h5.777
		L448.968,98.486z"/>
	<circle fill="#ED3431" cx="249.542" cy="98.968" r="36.198"/>
	<path fill="#FFFFFF" d="M242.794,94.817c0.891,0,1.636-0.351,2.22-1.013c0.907-1.037,1.312-2.739,1.074-4.549
		c-0.424-3.23-2.733-5.916-5.142-5.988h-0.096c-0.853,0-1.615,0.35-2.197,1.012c-0.895,1.023-1.274,2.646-1.041,4.45
		c0.425,3.228,2.782,6.017,5.144,6.088H242.794z M245.422,104.554c-0.233-0.159-0.48-0.327-0.737-0.504
		c-0.742-0.227-1.53-0.346-2.336-0.355l-0.103-0.001c-3.712,0-6.97,2.249-6.97,4.813c0,2.791,2.79,4.976,6.351,4.976
		c4.7,0,7.083-1.618,7.083-4.813c0-0.301-0.039-0.613-0.114-0.928C248.278,106.501,247.144,105.726,245.422,104.554z
		 M246.11,116.337c-1.388,0.4-2.888,0.604-4.459,0.604c-1.751,0-3.439-0.202-5.006-0.601c-3.039-0.766-5.29-2.219-6.336-4.092
		c-0.451-0.811-0.684-1.674-0.684-2.569c0-0.923,0.22-1.854,0.656-2.778c1.667-3.552,6.056-5.938,10.918-5.938
		c0.049,0,0.098,0,0.139,0c-0.393-0.696-0.586-1.416-0.586-2.174c0-0.377,0.05-0.762,0.152-1.151
		c-5.101-0.117-8.917-3.853-8.917-8.778c0-3.477,2.776-6.863,6.754-8.232c1.19-0.41,2.399-0.621,3.595-0.621h10.904
		c0.375,0,0.703,0.242,0.82,0.595c0.113,0.354-0.012,0.741-0.312,0.958l-2.442,1.768c-0.146,0.104-0.32,0.16-0.503,0.16h-0.873
		c1.127,1.354,1.789,3.277,1.789,5.443c0,2.389-1.208,4.65-3.407,6.371c-1.701,1.324-1.766,1.686-1.766,2.443
		c0.02,0.418,1.204,1.771,2.509,2.692c3.042,2.153,4.177,4.265,4.177,7.788C253.229,111.9,250.433,115.082,246.11,116.337z
		 M270.743,97.626c0,0.476-0.385,0.858-0.854,0.858h-6.204v6.201c0,0.474-0.382,0.858-0.855,0.858h-1.765
		c-0.473,0-0.858-0.385-0.858-0.858v-6.201h-6.201c-0.471,0-0.856-0.383-0.856-0.858v-1.765c0-0.473,0.385-0.856,0.856-0.856h6.201
		v-6.199c0-0.475,0.386-0.859,0.858-0.859h1.765c0.473,0,0.855,0.385,0.855,0.859v6.199h6.204c0.469,0,0.854,0.384,0.854,0.856
		V97.626z"/>
	<path fill="#F42439" d="M345.404,62.654c-20.061-0.033-36.344,16.198-36.377,36.254c-0.035,20.055,16.193,36.342,36.254,36.375
		c20.051,0.033,36.342-16.197,36.375-36.254C381.691,78.974,365.455,62.687,345.404,62.654z"/>
	<path fill="#FFFFFF" d="M326.99,101.787l2.951,0.006l-0.023,14.666l2.852,0.004l0.023-14.666l2.951,0.004l0.004-2.496l-8.754-0.014
		L326.99,101.787z M350.794,103.677c-0.395-0.002-0.783,0.098-1.17,0.301c-0.377,0.197-0.744,0.493-1.086,0.876l0.01-5.528
		l-2.561-0.004l-0.027,17.164l2.559,0.004l0.002-0.97c0.332,0.392,0.693,0.677,1.084,0.86c0.385,0.186,0.828,0.275,1.32,0.275
		c0.748,0.002,1.328-0.234,1.723-0.711c0.398-0.48,0.6-1.166,0.6-2.062l0.012-7.025c0.002-1.038-0.207-1.829-0.629-2.369
		C352.205,103.949,351.591,103.677,350.794,103.677z M350.638,113.533c0,0.401-0.072,0.689-0.223,0.87
		c-0.143,0.181-0.367,0.271-0.682,0.271c-0.215,0-0.418-0.051-0.609-0.137c-0.191-0.092-0.398-0.248-0.602-0.451l0.014-7.891
		c0.174-0.175,0.348-0.306,0.523-0.386c0.176-0.084,0.355-0.122,0.537-0.122c0.34,0.001,0.602,0.111,0.789,0.329
		c0.176,0.221,0.264,0.544,0.264,0.976L350.638,113.533z M344.531,89.63c0.387,0.002,0.689-0.104,0.918-0.316
		c0.229-0.212,0.346-0.509,0.346-0.882l0.014-7.599c0-0.306-0.115-0.549-0.35-0.742c-0.232-0.188-0.533-0.278-0.912-0.279
		c-0.352,0-0.631,0.089-0.852,0.275c-0.215,0.193-0.322,0.438-0.324,0.74l-0.012,7.6c0,0.385,0.1,0.676,0.301,0.887
		C343.863,89.531,344.15,89.63,344.531,89.63z M341.531,113.433c-0.238,0.275-0.496,0.501-0.785,0.682
		c-0.283,0.178-0.521,0.264-0.707,0.264c-0.236,0-0.41-0.063-0.52-0.203c-0.102-0.131-0.156-0.348-0.154-0.649l0.016-9.714
		l-2.527-0.004l-0.02,10.588c0,0.757,0.148,1.318,0.439,1.697c0.301,0.379,0.732,0.566,1.318,0.568c0.477,0,0.967-0.129,1.475-0.402
		c0.508-0.264,0.99-0.655,1.463-1.166l-0.002,1.386l2.533,0.005l0.021-12.664l-2.535-0.004L341.531,113.433z M351.027,77.757
		l2.842,0.004l-0.02,10.697c0,0.328,0.068,0.564,0.189,0.713c0.113,0.149,0.311,0.227,0.578,0.228c0.209,0,0.473-0.101,0.793-0.295
		c0.318-0.196,0.613-0.444,0.879-0.747l0.02-10.591l2.852,0.005l-0.025,13.95l-2.85-0.005l0.002-1.545
		c-0.523,0.568-1.066,1.004-1.645,1.3c-0.564,0.292-1.115,0.442-1.65,0.442c-0.66-0.002-1.154-0.211-1.486-0.631
		c-0.332-0.412-0.498-1.033-0.498-1.867L351.027,77.757z M340.441,80.931c0.002-1.086,0.381-1.944,1.148-2.582
		c0.77-0.637,1.805-0.957,3.102-0.954c1.176,0.002,2.143,0.343,2.893,1.017c0.752,0.676,1.127,1.549,1.125,2.613l-0.012,7.204
		c-0.004,1.192-0.373,2.125-1.109,2.808c-0.742,0.678-1.756,1.016-3.053,1.014c-1.248-0.002-2.248-0.356-2.994-1.061
		c-0.74-0.703-1.113-1.643-1.111-2.83L340.441,80.931z M332.687,72.766l2.074,7.563h0.199l1.996-7.558l3.262,0.006l-3.75,11.06
		l-0.014,7.846l-3.211-0.006l0.012-7.491l-3.801-11.427L332.687,72.766z M369.945,112.626c-0.008,5.045-4.105,9.133-9.152,9.125
		l-31.756-0.055c-5.047-0.009-9.131-4.109-9.121-9.156l0.012-7.347c0.008-5.046,4.105-9.134,9.152-9.125l31.756,0.054
		c5.047,0.01,9.131,4.11,9.123,9.156L369.945,112.626z M358.439,103.529c-1.139-0.002-2.055,0.344-2.771,1.029
		c-0.723,0.691-1.084,1.592-1.086,2.688l-0.01,5.688c-0.002,1.223,0.326,2.184,0.979,2.872c0.643,0.698,1.537,1.047,2.672,1.048
		c1.262,0.003,2.209-0.32,2.846-0.973c0.637-0.659,0.957-1.639,0.959-2.936l0.002-0.648l-2.605-0.006l-0.002,0.578
		c0,0.744-0.09,1.223-0.252,1.442c-0.172,0.22-0.463,0.327-0.883,0.327c-0.404-0.001-0.688-0.127-0.855-0.387
		c-0.17-0.26-0.248-0.723-0.248-1.389l0.004-2.386l4.846,0.008l0.006-3.229c0.002-1.2-0.312-2.121-0.93-2.764
		C360.484,103.853,359.597,103.531,358.439,103.529z M359.429,108.511l-2.236-0.004l0.002-1.279c0-0.531,0.084-0.913,0.264-1.137
		c0.174-0.235,0.465-0.348,0.865-0.348c0.389,0.002,0.672,0.114,0.84,0.352c0.176,0.223,0.27,0.605,0.27,1.137L359.429,108.511z"/>
	<circle fill="#4BA9DF" cx="153.741" cy="98.968" r="36.347"/>
	<path fill="#FFFFFF" d="M168.679,91.307c0.015,0.331,0.021,0.664,0.021,0.997c0,10.186-7.752,21.928-21.928,21.928
		c-4.351,0-8.4-1.275-11.813-3.464c0.604,0.073,1.218,0.108,1.839,0.108c3.611,0,6.934-1.231,9.571-3.299
		c-3.373-0.062-6.218-2.291-7.199-5.354c0.47,0.092,0.954,0.141,1.449,0.141c0.704,0,1.385-0.096,2.033-0.271
		c-3.527-0.709-6.184-3.824-6.184-7.559c0-0.033,0-0.064,0-0.097c1.039,0.577,2.228,0.925,3.491,0.964
		c-2.067-1.383-3.429-3.742-3.429-6.414c0-1.412,0.381-2.736,1.043-3.876c3.802,4.665,9.48,7.731,15.885,8.052
		c-0.131-0.562-0.199-1.149-0.199-1.754c0-4.257,3.451-7.707,7.706-7.707c2.218,0,4.22,0.937,5.626,2.436
		c1.755-0.348,3.403-0.986,4.893-1.871c-0.574,1.801-1.795,3.311-3.387,4.264c1.559-0.188,3.044-0.601,4.426-1.215
		C171.492,88.862,170.183,90.221,168.679,91.307z"/>
	<ellipse fill="#005596" cx="536.986" cy="99.011" rx="7.24" ry="7.225"/>
	<path fill="#005596" d="M545.324,91.611h5.092c0.582,0,1.053-0.471,1.053-1.051v-5.08c0-0.58-0.471-1.051-1.053-1.051h-5.092
		c-0.582,0-1.053,0.471-1.053,1.051v5.08C544.271,91.14,544.742,91.611,545.324,91.611z"/>
	<path fill="#005596" d="M548.441,99.011c0,6.302-5.141,11.429-11.455,11.429c-6.316,0-11.457-5.127-11.457-11.429
		c0-1.047,0.143-2.059,0.408-3.021h-3.523v16.377c0,0.58,0.471,1.051,1.053,1.051h27.037c0.582,0,1.055-0.471,1.055-1.051V95.99
		h-3.523C548.298,96.953,548.441,97.964,548.441,99.011z"/>
	<circle fill="#42B1B4" cx="57.941" cy="195.087" r="36.576"/>
	<path fill="#FFFFFF" d="M83.447,206.529c0,1.938-1.677,3.508-3.746,3.508H61.693l-11.782,9.414l4.108-9.414H36.182
		c-2.069,0-3.746-1.57-3.746-3.508v-24.293c0-1.938,1.677-3.51,3.746-3.51h43.52c2.069,0,3.746,1.57,3.746,3.51v24.293H83.447z"/>
	<path fill="#42B1B4" d="M38.104,189.02h5.059c2.551,0,3.204,1.595,3.204,2.667c0,1.493-0.841,1.914-1.275,2.131
		c1.275,0.479,1.609,1.493,1.609,2.521c0,0.826-0.348,1.609-0.899,2.146c-0.594,0.58-1.16,0.942-3.291,0.942h-4.407V189.02z
		 M40.191,193.093h2.551c0.855,0,1.537-0.332,1.537-1.159c0-0.854-0.609-1.116-1.595-1.116h-2.493V193.093L40.191,193.093z
		 M40.191,197.63h2.667c1.058,0,1.667-0.463,1.667-1.521c0-0.914-0.783-1.261-1.565-1.261h-2.769V197.63z M50.744,197.544h5.175
		v1.883h-7.35V189.02h2.174L50.744,197.544L50.744,197.544z M61.964,188.746c1.377,0,5.001,0.594,5.001,5.479
		s-3.624,5.479-5.001,5.479s-5.001-0.594-5.001-5.479S60.587,188.746,61.964,188.746z M61.964,197.863
		c1.174,0,2.827-0.725,2.827-3.639s-1.653-3.639-2.827-3.639c-1.174,0-2.827,0.726-2.827,3.639
		C59.137,197.136,60.79,197.863,61.964,197.863z M73.59,193.818h4.349v5.609h-1.45l-0.217-1.305c-0.551,0.639-1.348,1.58-3.247,1.58
		c-2.508,0-4.784-1.797-4.784-5.449c0-2.842,1.58-5.523,5.088-5.51c3.189,0,4.45,2.073,4.566,3.508h-2.174
		c0-0.405-0.739-1.709-2.276-1.709c-1.551,0-2.986,1.072-2.986,3.74c0,2.84,1.551,3.58,3.03,3.58c0.479,0,2.073-0.188,2.522-2.291
		H73.59V193.818z"/>
	<g>
		<path fill="#666666" d="M157.741,197.534c0.181,0,0.53-0.045,0.829-0.343l26.728-26.727h-55.114l26.728,26.727
			C157.212,197.489,157.56,197.534,157.741,197.534z"/>
		<g>
			<path fill="#666666" d="M143.582,193.79l-19.646-19.646c-0.508-0.509-0.927-1.071-1.272-1.664
				c-0.745,0.923-1.209,2.079-1.209,3.357v40.082L143.582,193.79z"/>
			<path fill="#666666" d="M194.03,215.919v-40.08c0-1.278-0.463-2.437-1.21-3.357c-0.346,0.592-0.764,1.156-1.272,1.664
				l-19.646,19.646L194.03,215.919z"/>
			<path fill="#666666" d="M126.829,222.879h61.824c0.711,0,1.388-0.145,2.009-0.396l-23.727-23.725l-3.401,3.4
				c-1.546,1.547-3.605,2.399-5.793,2.399c-2.189,0-4.248-0.853-5.795-2.399l-3.4-3.4l-23.727,23.725
				C125.442,222.735,126.119,222.879,126.829,222.879z"/>
		</g>
	</g>
	<g>
		<circle fill="#005596" cx="536.902" cy="99.221" r="36.575"/>
		<g>
			<path fill="#FFFFFF" d="M545.285,91.864h5.092c0.582,0,1.053-0.471,1.053-1.051v-5.08c0-0.58-0.471-1.051-1.053-1.051h-5.092
				c-0.582,0-1.053,0.471-1.053,1.051v5.08C544.232,91.393,544.703,91.864,545.285,91.864z M555.732,113.584
				c0,2.467-2.004,4.467-4.477,4.467H522.55c-2.473,0-4.477-2-4.477-4.467V84.858c0-2.467,2.004-4.467,4.477-4.467h28.705
				c2.473,0,4.477,2,4.477,4.467V113.584L555.732,113.584z M548.402,99.264c0,6.302-5.141,11.429-11.455,11.429
				c-6.316,0-11.457-5.127-11.457-11.429c0-1.047,0.143-2.059,0.408-3.021h-3.523v16.377c0,0.58,0.471,1.051,1.053,1.051h27.037
				c0.582,0,1.055-0.471,1.055-1.051V96.243h-3.523C548.259,97.206,548.402,98.217,548.402,99.264z"/>
			<circle fill="#005596" cx="536.902" cy="99.385" r="7.062"/>
		</g>
	</g>
</g>
<g id="Layer_3">
	<circle fill="#5D5D5D" cx="57.941" cy="306.967" r="36.576"/>
	<path fill="#FFFFFF" d="M79.666,306.968c0,11.996-9.727,21.724-21.725,21.724l0,0c-12.003,0-21.725-9.728-21.725-21.724l0,0
		c0-12,9.721-21.727,21.725-21.727l0,0C69.939,285.244,79.666,294.968,79.666,306.968L79.666,306.968z"/>
	<path fill="#5D5D5D" d="M58.864,291.889c-10.749,0-16.169,7.707-16.169,14.136c0,3.891,1.474,7.352,4.633,8.641
		c0.519,0.215,0.983,0.008,1.132-0.565c0.105-0.396,0.353-1.396,0.461-1.815c0.152-0.564,0.095-0.766-0.324-1.261
		c-0.912-1.073-1.495-2.464-1.495-4.437c0-5.717,4.28-10.836,11.138-10.836c6.077,0,9.417,3.713,9.417,8.668
		c0,6.525-2.887,12.031-7.173,12.031c-2.369,0-4.138-1.955-3.572-4.357c0.684-2.867,2-5.959,2-8.027
		c0-1.854-0.995-3.396-3.055-3.396c-2.417,0-4.359,2.502-4.359,5.854c0,2.138,0.72,3.58,0.72,3.58s-2.477,10.491-2.911,12.33
		c-0.865,3.657-0.128,8.144-0.069,8.597c0.037,0.27,0.385,0.334,0.54,0.131c0.222-0.291,3.103-3.851,4.085-7.404
		c0.275-1.008,1.59-6.219,1.59-6.219c0.787,1.5,3.085,2.817,5.526,2.817c7.274,0,12.207-6.629,12.207-15.503
		C73.186,298.139,67.502,291.889,58.864,291.889z"/>
	<circle fill="#5D5D5D" cx="441.142" cy="306.967" r="36.321"/>
	<path fill="#FFFFFF" d="M448.968,306.486h-5.117c0,8.18,0,18.254,0,18.254h-7.59c0,0,0-9.976,0-18.254h-3.605v-6.451h3.605v-4.173
		c0-2.985,1.42-7.655,7.656-7.655l5.619,0.021v6.262c0,0-3.418,0-4.078,0c-0.666,0-1.607,0.332-1.607,1.754v3.793h5.777
		L448.968,306.486z"/>
	<circle fill="#5D5D5D" cx="249.542" cy="306.968" r="36.198"/>
	<path fill="#FFFFFF" d="M242.794,302.817c0.891,0,1.636-0.351,2.22-1.013c0.907-1.037,1.312-2.739,1.074-4.549
		c-0.424-3.23-2.733-5.916-5.142-5.988h-0.096c-0.853,0-1.615,0.35-2.197,1.012c-0.895,1.023-1.274,2.646-1.041,4.45
		c0.425,3.228,2.782,6.017,5.144,6.088H242.794z M245.422,312.554c-0.233-0.159-0.48-0.327-0.737-0.504
		c-0.742-0.227-1.53-0.346-2.336-0.355l-0.103-0.001c-3.712,0-6.97,2.249-6.97,4.813c0,2.791,2.79,4.976,6.351,4.976
		c4.7,0,7.083-1.618,7.083-4.813c0-0.301-0.039-0.613-0.114-0.928C248.278,314.501,247.144,313.726,245.422,312.554z
		 M246.11,324.337c-1.388,0.4-2.888,0.604-4.459,0.604c-1.751,0-3.439-0.202-5.006-0.601c-3.039-0.766-5.29-2.219-6.336-4.092
		c-0.451-0.811-0.684-1.674-0.684-2.569c0-0.923,0.22-1.854,0.656-2.778c1.667-3.552,6.056-5.938,10.918-5.938
		c0.049,0,0.098,0,0.139,0c-0.393-0.696-0.586-1.416-0.586-2.174c0-0.377,0.05-0.762,0.152-1.151
		c-5.101-0.117-8.917-3.853-8.917-8.778c0-3.477,2.776-6.863,6.754-8.232c1.19-0.41,2.399-0.621,3.595-0.621h10.904
		c0.375,0,0.703,0.242,0.82,0.595c0.113,0.354-0.012,0.741-0.312,0.958l-2.442,1.768c-0.146,0.104-0.32,0.16-0.503,0.16h-0.873
		c1.127,1.354,1.789,3.277,1.789,5.443c0,2.389-1.208,4.65-3.407,6.371c-1.701,1.324-1.766,1.686-1.766,2.443
		c0.02,0.418,1.204,1.771,2.509,2.692c3.042,2.153,4.177,4.265,4.177,7.788C253.229,319.9,250.433,323.082,246.11,324.337z
		 M270.743,305.626c0,0.476-0.385,0.858-0.854,0.858h-6.204v6.201c0,0.474-0.382,0.858-0.855,0.858h-1.765
		c-0.473,0-0.858-0.385-0.858-0.858v-6.201h-6.201c-0.471,0-0.856-0.383-0.856-0.858v-1.765c0-0.473,0.385-0.856,0.856-0.856h6.201
		v-6.199c0-0.475,0.386-0.859,0.858-0.859h1.765c0.473,0,0.855,0.385,0.855,0.859v6.199h6.204c0.469,0,0.854,0.384,0.854,0.856
		V305.626z"/>
	<path fill="#5D5D5D" d="M345.404,270.654c-20.061-0.033-36.344,16.198-36.377,36.254c-0.035,20.055,16.193,36.342,36.254,36.375
		c20.051,0.033,36.342-16.197,36.375-36.254C381.691,286.974,365.455,270.687,345.404,270.654z"/>
	<path fill="#FFFFFF" d="M326.99,309.787l2.951,0.006l-0.023,14.666l2.852,0.004l0.023-14.666l2.951,0.004l0.004-2.496l-8.754-0.014
		L326.99,309.787z M350.794,311.677c-0.395-0.002-0.783,0.098-1.17,0.301c-0.377,0.197-0.744,0.493-1.086,0.876l0.01-5.528
		l-2.561-0.004l-0.027,17.164l2.559,0.004l0.002-0.97c0.332,0.392,0.693,0.677,1.084,0.86c0.385,0.186,0.828,0.275,1.32,0.275
		c0.748,0.002,1.328-0.234,1.723-0.711c0.398-0.48,0.6-1.166,0.6-2.062l0.012-7.025c0.002-1.038-0.207-1.829-0.629-2.369
		C352.205,311.949,351.591,311.677,350.794,311.677z M350.638,321.533c0,0.401-0.072,0.689-0.223,0.87
		c-0.143,0.181-0.367,0.271-0.682,0.271c-0.215,0-0.418-0.051-0.609-0.137c-0.191-0.092-0.398-0.248-0.602-0.451l0.014-7.891
		c0.174-0.175,0.348-0.306,0.523-0.386c0.176-0.084,0.355-0.122,0.537-0.122c0.34,0.001,0.602,0.111,0.789,0.329
		c0.176,0.221,0.264,0.544,0.264,0.976L350.638,321.533z M344.531,297.63c0.387,0.002,0.689-0.104,0.918-0.316
		c0.229-0.212,0.346-0.509,0.346-0.882l0.014-7.599c0-0.306-0.115-0.549-0.35-0.742c-0.232-0.188-0.533-0.278-0.912-0.279
		c-0.352,0-0.631,0.089-0.852,0.275c-0.215,0.193-0.322,0.438-0.324,0.74l-0.012,7.6c0,0.385,0.1,0.676,0.301,0.887
		C343.863,297.531,344.15,297.63,344.531,297.63z M341.531,321.433c-0.238,0.275-0.496,0.501-0.785,0.682
		c-0.283,0.178-0.521,0.264-0.707,0.264c-0.236,0-0.41-0.063-0.52-0.203c-0.102-0.131-0.156-0.348-0.154-0.649l0.016-9.714
		l-2.527-0.004l-0.02,10.588c0,0.757,0.148,1.318,0.439,1.697c0.301,0.379,0.732,0.566,1.318,0.568c0.477,0,0.967-0.129,1.475-0.402
		c0.508-0.264,0.99-0.655,1.463-1.166l-0.002,1.386l2.533,0.005l0.021-12.664l-2.535-0.004L341.531,321.433z M351.027,285.757
		l2.842,0.004l-0.02,10.697c0,0.328,0.068,0.564,0.189,0.713c0.113,0.149,0.311,0.227,0.578,0.228c0.209,0,0.473-0.101,0.793-0.295
		c0.318-0.196,0.613-0.444,0.879-0.747l0.02-10.591l2.852,0.005l-0.025,13.95l-2.85-0.005l0.002-1.545
		c-0.523,0.568-1.066,1.004-1.645,1.3c-0.564,0.292-1.115,0.442-1.65,0.442c-0.66-0.002-1.154-0.211-1.486-0.631
		c-0.332-0.412-0.498-1.033-0.498-1.867L351.027,285.757z M340.441,288.931c0.002-1.086,0.381-1.944,1.148-2.582
		c0.77-0.637,1.805-0.957,3.102-0.954c1.176,0.002,2.143,0.343,2.893,1.017c0.752,0.676,1.127,1.549,1.125,2.613l-0.012,7.204
		c-0.004,1.192-0.373,2.125-1.109,2.808c-0.742,0.678-1.756,1.016-3.053,1.014c-1.248-0.002-2.248-0.356-2.994-1.061
		c-0.74-0.703-1.113-1.643-1.111-2.83L340.441,288.931z M332.687,280.766l2.074,7.563h0.199l1.996-7.558l3.262,0.006l-3.75,11.06
		l-0.014,7.846l-3.211-0.006l0.012-7.491l-3.801-11.427L332.687,280.766z M369.945,320.626c-0.008,5.045-4.105,9.133-9.152,9.125
		l-31.756-0.055c-5.047-0.009-9.131-4.109-9.121-9.156l0.012-7.347c0.008-5.046,4.105-9.134,9.152-9.125l31.756,0.054
		c5.047,0.01,9.131,4.11,9.123,9.156L369.945,320.626z M358.439,311.529c-1.139-0.002-2.055,0.344-2.771,1.029
		c-0.723,0.691-1.084,1.592-1.086,2.688l-0.01,5.688c-0.002,1.223,0.326,2.184,0.979,2.872c0.643,0.698,1.537,1.047,2.672,1.048
		c1.262,0.003,2.209-0.32,2.846-0.973c0.637-0.659,0.957-1.639,0.959-2.936l0.002-0.648l-2.605-0.006l-0.002,0.578
		c0,0.744-0.09,1.223-0.252,1.442c-0.172,0.22-0.463,0.327-0.883,0.327c-0.404-0.001-0.688-0.127-0.855-0.387
		c-0.17-0.26-0.248-0.723-0.248-1.389l0.004-2.386l4.846,0.008l0.006-3.229c0.002-1.2-0.312-2.121-0.93-2.764
		C360.484,311.853,359.597,311.531,358.439,311.529z M359.429,316.511l-2.236-0.004l0.002-1.279c0-0.531,0.084-0.913,0.264-1.137
		c0.174-0.235,0.465-0.348,0.865-0.348c0.389,0.002,0.672,0.114,0.84,0.352c0.176,0.223,0.27,0.605,0.27,1.137L359.429,316.511z"/>
	<circle fill="#5D5D5D" cx="153.741" cy="306.968" r="36.347"/>
	<path fill="#FFFFFF" d="M168.679,299.307c0.015,0.331,0.021,0.664,0.021,0.997c0,10.186-7.752,21.928-21.928,21.928
		c-4.351,0-8.4-1.275-11.813-3.464c0.604,0.073,1.218,0.108,1.839,0.108c3.611,0,6.934-1.231,9.571-3.299
		c-3.373-0.062-6.218-2.291-7.199-5.354c0.47,0.092,0.954,0.141,1.449,0.141c0.704,0,1.385-0.096,2.033-0.271
		c-3.527-0.709-6.184-3.824-6.184-7.559c0-0.033,0-0.064,0-0.097c1.039,0.577,2.228,0.925,3.491,0.964
		c-2.067-1.383-3.429-3.742-3.429-6.414c0-1.412,0.381-2.736,1.043-3.876c3.802,4.665,9.48,7.731,15.885,8.052
		c-0.131-0.562-0.199-1.149-0.199-1.754c0-4.257,3.451-7.707,7.706-7.707c2.218,0,4.22,0.937,5.626,2.436
		c1.755-0.348,3.403-0.986,4.893-1.871c-0.574,1.801-1.795,3.311-3.387,4.264c1.559-0.188,3.044-0.601,4.426-1.215
		C171.492,296.862,170.183,298.221,168.679,299.307z"/>
	<circle fill="#5D5D5D" cx="57.941" cy="403.087" r="36.576"/>
	<path fill="#FFFFFF" d="M83.447,414.529c0,1.938-1.677,3.508-3.746,3.508H61.693l-11.782,9.414l4.108-9.414H36.182
		c-2.069,0-3.746-1.57-3.746-3.508v-24.293c0-1.938,1.677-3.51,3.746-3.51h43.52c2.069,0,3.746,1.57,3.746,3.51v24.293H83.447z"/>
	<path fill="#5D5D5D" d="M38.104,397.02h5.059c2.551,0,3.204,1.595,3.204,2.667c0,1.493-0.841,1.914-1.275,2.131
		c1.275,0.479,1.609,1.493,1.609,2.521c0,0.826-0.348,1.609-0.899,2.146c-0.594,0.58-1.16,0.942-3.291,0.942h-4.407V397.02z
		 M40.191,401.093h2.551c0.855,0,1.537-0.332,1.537-1.159c0-0.854-0.609-1.116-1.595-1.116h-2.493V401.093L40.191,401.093z
		 M40.191,405.63h2.667c1.058,0,1.667-0.463,1.667-1.521c0-0.914-0.783-1.261-1.565-1.261h-2.769V405.63z M50.744,405.544h5.175
		v1.883h-7.35V397.02h2.174L50.744,405.544L50.744,405.544z M61.964,396.746c1.377,0,5.001,0.594,5.001,5.479
		s-3.624,5.479-5.001,5.479s-5.001-0.594-5.001-5.479S60.587,396.746,61.964,396.746z M61.964,405.863
		c1.174,0,2.827-0.725,2.827-3.639s-1.653-3.639-2.827-3.639c-1.174,0-2.827,0.726-2.827,3.639
		C59.137,405.136,60.79,405.863,61.964,405.863z M73.59,401.818h4.349v5.609h-1.45l-0.217-1.305c-0.551,0.639-1.348,1.58-3.247,1.58
		c-2.508,0-4.784-1.797-4.784-5.449c0-2.842,1.58-5.523,5.088-5.51c3.189,0,4.45,2.073,4.566,3.508h-2.174
		c0-0.405-0.739-1.709-2.276-1.709c-1.551,0-2.986,1.072-2.986,3.74c0,2.84,1.551,3.58,3.03,3.58c0.479,0,2.073-0.188,2.522-2.291
		H73.59V401.818z"/>
	<g>
		<path fill="#5D5D5D" d="M157.741,405.534c0.181,0,0.53-0.045,0.829-0.343l26.728-26.727h-55.114l26.728,26.727
			C157.212,405.489,157.56,405.534,157.741,405.534z"/>
		<g>
			<path fill="#5D5D5D" d="M143.582,401.79l-19.646-19.646c-0.508-0.509-0.927-1.071-1.272-1.664
				c-0.745,0.923-1.209,2.079-1.209,3.357v40.082L143.582,401.79z"/>
			<path fill="#5D5D5D" d="M194.03,423.919v-40.08c0-1.278-0.463-2.437-1.21-3.357c-0.346,0.592-0.764,1.156-1.272,1.664
				l-19.646,19.646L194.03,423.919z"/>
			<path fill="#5D5D5D" d="M126.829,430.879h61.824c0.711,0,1.388-0.145,2.009-0.396l-23.727-23.725l-3.401,3.4
				c-1.546,1.547-3.605,2.399-5.793,2.399c-2.189,0-4.248-0.853-5.795-2.399l-3.4-3.4l-23.727,23.725
				C125.442,430.735,126.119,430.879,126.829,430.879z"/>
		</g>
	</g>
	<ellipse fill="#005596" cx="536.986" cy="307.011" rx="7.24" ry="7.225"/>
	<path fill="#005596" d="M545.324,299.611h5.092c0.582,0,1.053-0.471,1.053-1.051v-5.08c0-0.58-0.471-1.051-1.053-1.051h-5.092
		c-0.582,0-1.053,0.471-1.053,1.051v5.08C544.271,299.14,544.742,299.611,545.324,299.611z"/>
	<path fill="#005596" d="M548.441,307.011c0,6.302-5.141,11.429-11.455,11.429c-6.316,0-11.457-5.127-11.457-11.429
		c0-1.047,0.143-2.059,0.408-3.021h-3.523v16.377c0,0.58,0.471,1.051,1.053,1.051h27.037c0.582,0,1.055-0.471,1.055-1.051V303.99
		h-3.523C548.298,304.953,548.441,305.964,548.441,307.011z"/>
	<circle fill="#5D5D5D" cx="536.902" cy="307.221" r="36.575"/>
	<path fill="#FFFFFF" d="M545.285,299.864h5.092c0.582,0,1.053-0.471,1.053-1.051v-5.08c0-0.58-0.471-1.051-1.053-1.051h-5.092
		c-0.582,0-1.053,0.471-1.053,1.051v5.08C544.232,299.393,544.703,299.864,545.285,299.864z M555.732,321.584
		c0,2.467-2.004,4.467-4.477,4.467H522.55c-2.473,0-4.477-2-4.477-4.467v-28.727c0-2.467,2.004-4.467,4.477-4.467h28.705
		c2.473,0,4.477,2,4.477,4.467V321.584L555.732,321.584z M548.402,307.264c0,6.302-5.141,11.429-11.455,11.429
		c-6.316,0-11.457-5.127-11.457-11.429c0-1.047,0.143-2.059,0.408-3.021h-3.523v16.377c0,0.58,0.471,1.051,1.053,1.051h27.037
		c0.582,0,1.055-0.471,1.055-1.051v-16.377h-3.523C548.259,305.206,548.402,306.217,548.402,307.264z"/>
	<circle fill="#5D5D5D" cx="536.902" cy="307.385" r="7.062"/>
</g>
</svg>
