<?xml version="1.0" encoding="utf-8"?>
<!-- Generator: Adobe Illustrator 15.0.2, SVG Export Plug-In . SVG Version: 6.00 Build 0)  -->
<!DOCTYPE svg PUBLIC "-//W3C//DTD SVG 1.1//EN" "http://www.w3.org/Graphics/SVG/1.1/DTD/svg11.dtd">
<svg version="1.1" id="Layer_1" xmlns="http://www.w3.org/2000/svg" xmlns:xlink="http://www.w3.org/1999/xlink" x="0px" y="0px"
	 width="146.753px" height="36.36px" viewBox="0 0 146.753 36.36" enable-background="new 0 0 146.753 36.36" xml:space="preserve">
<g>
	<g>
		<path fill="#CDDE61" d="M124.336,3.901C100.889,2.568,77.176,2.55,53.762,4.354c-13.873,1.068-28.557,2.519-41.482,8.03
			c-4.683,1.997-17.75,9.942-9.736,15.581c3.969,2.793,9.582,3.661,14.23,4.512c7.259,1.329,14.645,1.971,21.997,2.517
			c14.823,1.101,29.713,1.376,44.573,1.367c14.587-0.009,29.18-0.734,43.409-4.249c6.213-1.535,15.74-3.584,19.404-9.548
			c3.484-5.668-9.281-10.322-12.606-11.745c-14.24-6.092-30.181-8.241-45.488-9.604c-11.894-1.059-23.95-1.537-35.887-0.979
			c-1.501,0.07-6.342,3.365-3.242,3.22C66,2.658,83.353,3.731,100.224,6.327c10.335,1.59,20.728,3.955,30.304,8.238
			c3.31,1.48,7.756,3.388,10.015,6.35c2.402,3.152-2.896,5.146-4.985,5.991c-14.636,5.917-31.531,6.172-47.137,6.23
			c-14.494,0.054-29.002-0.236-43.468-1.16c-7.728-0.494-15.462-1.212-23.102-2.502c-4.842-0.817-10.449-1.696-14.559-4.588
			c-8.719-6.136,13.542-12.91,16.398-13.571C39.293,7.704,55.604,6.954,71.559,6.5c13.694-0.39,27.409-0.247,41.099,0.248
			c2.812,0.102,5.626,0.214,8.437,0.374C122.633,7.208,127.503,4.082,124.336,3.901L124.336,3.901z"/>
	</g>
</g>
</svg>
