<?xml version="1.0" encoding="utf-8"?>
<!-- Generator: Adobe Illustrator 15.0.2, SVG Export Plug-In . SVG Version: 6.00 Build 0)  -->
<!DOCTYPE svg PUBLIC "-//W3C//DTD SVG 1.1//EN" "http://www.w3.org/Graphics/SVG/1.1/DTD/svg11.dtd">
<svg version="1.1" id="Layer_1" xmlns="http://www.w3.org/2000/svg" xmlns:xlink="http://www.w3.org/1999/xlink" x="0px" y="0px"
	 width="135.188px" height="35.944px" viewBox="0 0 135.188 35.944" enable-background="new 0 0 135.188 35.944"
	 xml:space="preserve">
<path fill="#CDDE61" d="M109.886,1.725c-24.143-1.239-48.86-0.945-72.791,2.597C25.81,5.992,10.856,8.384,2.752,17.336
	c-7.894,8.722,2.957,13.258,10.451,15.032c14.593,3.455,30.226,3.482,45.14,3.566c10.044,0.057,20.106-0.157,30.144-0.58
	c9.521-0.4,19.074-2.059,28.265-4.53c5.821-1.564,14.32-3.849,17.756-9.353c6.312-10.115-33.262-17.56-38.092-18.326
	C77.88,0.207,58.629-0.573,39.886,0.391c-1.499,0.077-6.337,3.379-3.242,3.22c15.993-0.822,32.205-0.181,48.1,1.668
	c9.868,1.148,19.739,2.936,29.165,6.128c2.895,0.98,19.351,6.845,14.7,11.847c-2.386,2.565-6.995,3.559-10.199,4.509
	c-5.173,1.532-10.512,2.502-15.841,3.294c-5.653,0.84-11.314,1.076-17.013,1.274c-13.077,0.456-26.175,0.568-39.252,0.055
	c-7.831-0.308-15.67-0.875-23.415-2.11c-5.169-0.824-11.112-1.812-15.408-5.027c-9.959-7.454,12.981-14.891,16.917-15.823
	c26.086-6.177,54.384-5.688,81.039-4.538c0.402,0.018,0.806,0.036,1.208,0.056C108.182,5.023,113.051,1.887,109.886,1.725
	L109.886,1.725z"/>
</svg>
