<?xml version="1.0" encoding="utf-8"?>
<!-- Generator: Adobe Illustrator 15.0.2, SVG Export Plug-In . SVG Version: 6.00 Build 0)  -->
<!DOCTYPE svg PUBLIC "-//W3C//DTD SVG 1.1//EN" "http://www.w3.org/Graphics/SVG/1.1/DTD/svg11.dtd">
<svg version="1.1" id="Layer_1" xmlns="http://www.w3.org/2000/svg" xmlns:xlink="http://www.w3.org/1999/xlink" x="0px" y="0px"
	 width="185.446px" height="54.19px" viewBox="0 0 185.446 54.19" enable-background="new 0 0 185.446 54.19" xml:space="preserve">
<g>
	<g>
		<path fill="#CDDE61" d="M146.53,4.858c-21.211-1.211-42.604-1.064-63.805,0.154c-15.765,0.905-31.673,2.464-47.05,6.175
			c-10.931,2.638-23.809,6.416-31.426,15.285c-19.059,22.189,31.534,26.005,42.51,26.747c22.317,1.509,45.131,1.232,67.439-0.646
			c13.806-1.163,27.632-3.246,41.162-6.212c6.665-1.46,13.333-3.18,19.643-5.809c3.516-1.466,8.792-3.8,10.187-7.729
			c1.493-4.207-3.878-7.005-6.826-8.551c-9.039-4.737-18.842-8.06-28.601-10.954c-20.801-6.167-42.446-9.965-64.013-12.17
			c-7.088-0.725-14.332-1.423-21.464-1.04c-1.497,0.08-6.335,3.386-3.242,3.22c16.862-0.905,34.445,2.338,50.955,5.327
			c21.305,3.857,43.8,8.866,62.944,19.348c2.878,1.576,7.12,4.996,3.354,8.02c-4.383,3.521-11.039,4.8-16.337,6.156
			c-13.981,3.58-28.518,5.648-42.872,7.024c-21.875,2.098-44.301,2.174-66.208,0.972c-13.167-0.723-28.442-1.43-40.388-7.641
			c-9.264-4.816-7.567-13.867,0-19.606c9.013-6.837,21.713-9.083,32.568-10.982c14.59-2.553,29.432-3.603,44.217-4.187
			c17.965-0.709,36.055-0.706,54.012,0.319C144.827,8.166,149.697,5.039,146.53,4.858L146.53,4.858z"/>
	</g>
</g>
</svg>
