<?xml version="1.0" encoding="utf-8"?>
<!-- Generator: Adobe Illustrator 15.0.2, SVG Export Plug-In . SVG Version: 6.00 Build 0)  -->
<!DOCTYPE svg PUBLIC "-//W3C//DTD SVG 1.1//EN" "http://www.w3.org/Graphics/SVG/1.1/DTD/svg11.dtd">
<svg version="1.1" id="Layer_1" xmlns="http://www.w3.org/2000/svg" xmlns:xlink="http://www.w3.org/1999/xlink" x="0px" y="0px"
	 width="149.227px" height="48.462px" viewBox="0 0 149.227 48.462" enable-background="new 0 0 149.227 48.462"
	 xml:space="preserve">
<g>
	<g>
		<path fill="#CDDE61" d="M117.971,4.334c-23.069-1.46-46.615-1.071-69.537,1.91C34.95,7.998,20.393,10.743,8.91,18.46
			C1.797,23.24-4.397,33.255,4.151,39.763c4.454,3.392,10.581,4.756,15.946,5.835c7.353,1.48,14.891,2.065,22.37,2.461
			c13.545,0.716,27.155,0.402,40.692-0.346c9.014-0.497,17.926-1.569,26.829-3.092c7.56-1.293,15.108-2.887,22.441-5.147
			c5.232-1.612,11.108-3.631,15.08-7.579c10.544-10.482-30.678-21.285-36.049-22.783C99.926,5.894,88.123,3.593,76.272,1.908
			c-7.924-1.126-16.195-2.266-24.221-1.802c-1.329,0.077-6.548,3.008-3.242,3.22c21.973,1.41,43.946,2.819,65.919,4.229
			C116.27,7.653,121.14,4.538,117.971,4.334c-21.973-1.41-43.946-2.819-65.919-4.229c-1.081,1.073-2.162,2.146-3.242,3.22
			c7.315-0.423,14.764,0.597,21.998,1.561c10.882,1.45,21.68,3.586,32.318,6.289c11.032,2.802,21.964,6.366,32.142,11.509
			c2.756,1.393,12.106,5.759,7.074,9.869c-4.79,3.912-12.443,5.209-18.286,6.568c-7.366,1.715-14.847,2.963-22.338,3.984
			c-7.953,1.086-15.952,1.483-23.969,1.791c-15.17,0.582-30.504,0.638-45.594-1.211C24.742,42.778,4.342,40.734,5.443,29.42
			c1.17-12.023,18.633-15.872,27.942-17.877c15.75-3.394,32.049-4.267,48.117-4.576c11.062-0.213,22.181-0.111,33.227,0.588
			C116.27,7.652,121.14,4.535,117.971,4.334z"/>
	</g>
</g>
</svg>
