<?xml version="1.0" encoding="utf-8"?>
<!-- Generator: Adobe Illustrator 15.0.2, SVG Export Plug-In . SVG Version: 6.00 Build 0)  -->
<!DOCTYPE svg PUBLIC "-//W3C//DTD SVG 1.1//EN" "http://www.w3.org/Graphics/SVG/1.1/DTD/svg11.dtd">
<svg version="1.1" id="Layer_1" xmlns="http://www.w3.org/2000/svg" xmlns:xlink="http://www.w3.org/1999/xlink" x="0px" y="0px"
	 width="75.836px" height="36.126px" viewBox="0 0 75.836 36.126" enable-background="new 0 0 75.836 36.126" xml:space="preserve">
<g>
	<g>
		<path fill="#CDDE61" d="M60.374,3.188C49.602,2.179,38.525,2.429,27.847,4.151C17.372,5.841-2.02,11.724,0.171,25.902
			c0.899,5.819,8.551,7.922,13.323,8.92c7.03,1.47,14.438,1.436,21.581,1.144c10.871-0.444,21.806-2.225,31.768-6.8
			c3.407-1.564,7.567-3.808,8.809-7.61c1.538-4.708-6.892-8.913-9.783-10.627C59.267,7.017,51.806,4.449,44.423,2.48
			c-5.281-1.408-11.185-2.817-16.701-2.409c-1.485,0.11-6.312,3.447-3.242,3.22c8.714-0.646,18.53,2.757,26.514,5.827
			c3.746,1.44,23.762,9.507,18.127,15.7c-4.287,4.713-14.015,5.97-19.97,7.002c-3.812,0.661-7.749,0.8-11.604,0.957
			c-9.036,0.37-36.38,1.283-31.21-14.478c2.332-7.107,11.228-9.439,17.67-10.723c7.39-1.472,15.01-1.758,22.526-1.678
			c3.179,0.034,6.378,0.132,9.545,0.429C57.647,6.474,62.422,3.379,60.374,3.188L60.374,3.188z"/>
	</g>
</g>
</svg>
