<?xml version="1.0" encoding="utf-8"?>
<!-- Generator: Adobe Illustrator 15.0.2, SVG Export Plug-In . SVG Version: 6.00 Build 0)  -->
<!DOCTYPE svg PUBLIC "-//W3C//DTD SVG 1.1//EN" "http://www.w3.org/Graphics/SVG/1.1/DTD/svg11.dtd">
<svg version="1.1" id="Layer_1" xmlns="http://www.w3.org/2000/svg" xmlns:xlink="http://www.w3.org/1999/xlink" x="0px" y="0px"
	 width="351.73px" height="61.639px" viewBox="0 0 351.73 61.639" enable-background="new 0 0 351.73 61.639" xml:space="preserve">
<path fill="#FFFFFF" d="M339.097,34.15h-19.552c1.022-5.892,4.526-9.732,9.906-9.732C334.914,24.417,338.328,28.346,339.097,34.15
	 M351.73,39.016v-0.171c0-12.976-7.001-24.843-22.279-24.843c-13.319,0-22.623,10.756-22.623,23.822v0.167
	c0,14.002,10.156,23.648,23.901,23.648c8.28,0,14.429-3.243,18.698-8.537l-7.428-6.572c-3.585,3.328-6.744,4.694-11.1,4.694
	c-5.805,0-9.903-3.073-11.183-8.965h31.844C351.646,41.066,351.73,40.296,351.73,39.016 M301.331,27.576V14.001
	c-7.684-0.34-11.953,3.757-14.599,10.074v-9.22h-12.978v45.76h12.978V43.71c0-10.927,5.294-16.134,13.917-16.134H301.331z
	 M252.267,37.991c0,6.743-4.439,12.465-11.869,12.465c-7.169,0-12.036-5.89-12.036-12.633V37.65c0-6.743,4.438-12.464,11.868-12.464
	c7.169,0,12.037,5.889,12.037,12.637V37.991z M265.073,37.823V37.65c0-13.147-10.503-23.648-24.675-23.648
	c-14.255,0-24.844,10.671-24.844,23.822v0.167c0,13.149,10.504,23.648,24.676,23.648C254.488,61.639,265.073,50.968,265.073,37.823
	 M207.521,58.735V48.321c-1.878,1.024-4.011,1.622-6.401,1.622c-2.902,0-4.185-1.451-4.185-4.439V25.956h10.756v-11.1h-10.756V3.16
	h-12.975v11.696h-5.464v11.1h5.086l0.378,21.681c0,10.589,5.378,13.746,13.318,13.746C201.631,61.383,204.791,60.358,207.521,58.735
	 M171.998,42.942v-0.171c0-10.413-6.83-14.768-18.952-17.928c-10.331-2.646-12.891-3.925-12.891-7.853v-0.169
	c0-2.905,2.646-5.209,7.682-5.209c5.039,0,10.243,2.219,15.538,5.891l6.83-9.902C164.142,2.734,156.718,0,148.007,0
	c-12.207,0-20.915,7.173-20.915,18.013v0.172c0,11.867,7.77,15.194,19.806,18.27c9.989,2.561,12.039,4.266,12.039,7.599v0.171
	c0,3.497-3.247,5.633-8.622,5.633c-6.831,0-12.465-2.819-17.843-7.257l-7.77,9.306c7.171,6.404,16.305,9.561,25.355,9.561
	C162.949,61.468,171.998,54.808,171.998,42.942 M83.043,37.991c0,6.743-4.44,12.465-11.865,12.465c-7.17,0-12.04-5.89-12.04-12.633
	V37.65c0-6.743,4.441-12.464,11.869-12.464c7.169,0,12.036,5.889,12.036,12.637V37.991z M95.847,37.823V37.65
	c0-13.147-10.499-23.648-24.669-23.648c-14.259,0-24.846,10.671-24.846,23.822v0.167c0,13.149,10.504,23.648,24.675,23.648
	C85.263,61.639,95.847,50.968,95.847,37.823 M49.516,12.976V0.856H0v12.12h18.184v47.64h13.149v-47.64H49.516z"/>
</svg>
